<svg width="105" height="105" viewBox="0 0 105 105" fill="none" xmlns="http://www.w3.org/2000/svg">
<g clip-path="url(#clip0_7147_2349)">
<path d="M101.825 26.6294C99.0691 16.4842 88.5179 5.93086 78.3706 3.17461C72.1485 1.62422 63.8142 0.0266602 52.5 0C41.1858 0.0266602 32.8515 1.62422 26.6294 3.17461C16.4842 5.93086 5.93086 16.4821 3.17461 26.6294C1.62422 32.8515 0.0266602 41.1858 0 52.5C0.0266602 63.8142 1.62422 72.1485 3.17461 78.3706C5.93086 88.5179 16.4842 99.0691 26.6294 101.825C32.8515 103.376 41.1899 104.973 52.5 105C63.8121 104.973 72.1485 103.376 78.3706 101.825C88.5179 99.0691 99.0691 88.5179 101.825 78.3706C103.376 72.1485 104.973 63.8101 105 52.5C104.973 41.1858 103.376 32.8515 101.825 26.6294Z" fill="#F9F8FA"/>
<path d="M84.3466 45.5851C82.9015 44.1796 81.4529 42.7694 80.001 41.3544C79.96 39.3897 79.9087 37.4237 79.8472 35.4563C79.7651 32.8252 78.629 30.315 76.6767 28.3627C74.7963 26.4433 72.2553 25.3126 69.5707 25.2003C67.5992 25.1388 65.6291 25.0876 63.6604 25.0465C62.2357 23.6028 60.8255 22.1584 59.4296 20.7132C58.5439 19.7614 57.4715 19.0023 56.2795 18.4832C55.0874 17.9642 53.8012 17.6963 52.501 17.6963C51.2009 17.6963 49.9146 17.9642 48.7226 18.4832C47.5305 19.0023 46.4582 19.7614 45.5725 20.7132C44.1752 22.1597 42.7622 23.6076 41.3335 25.0568C39.3647 25.0951 37.396 25.1457 35.4272 25.2086C30.0029 25.3931 25.3354 30.0504 25.1508 35.4625C25.0893 37.4271 25.038 39.3931 24.997 41.3605C23.5464 42.7783 22.0979 44.1872 20.6514 45.5872C18.7216 47.4636 17.6367 49.9082 17.6367 52.5004C17.6452 53.797 17.9168 55.0784 18.435 56.2671C18.9532 57.4557 19.7072 58.5268 20.6514 59.4156C22.0979 60.8142 23.5464 62.2217 24.997 63.6381C25.038 65.6069 25.0893 67.575 25.1508 69.5423C25.2328 72.1776 26.3689 74.6816 28.3192 76.636C30.2006 78.5551 32.7421 79.6858 35.4272 79.7983C37.3987 79.8598 39.3688 79.9111 41.3376 79.9521C42.7636 81.3986 44.1738 82.8437 45.5684 84.2875C46.4549 85.2389 47.5279 85.9976 48.7204 86.5164C49.913 87.0352 51.1995 87.3029 52.5 87.3029C53.8005 87.3029 55.087 87.0352 56.2796 86.5164C57.4721 85.9976 58.5451 85.2389 59.4316 84.2875C60.8344 82.8451 62.246 81.3993 63.6665 79.9501C65.6353 79.9104 67.604 79.8598 69.5728 79.7983C74.995 79.6137 79.6646 74.9523 79.8492 69.5444C79.9107 67.5797 79.962 65.6144 80.003 63.6484C81.4536 62.232 82.9021 60.8204 84.3486 59.4135C85.2918 58.5244 86.0452 57.4535 86.5633 56.2654C87.0814 55.0773 87.3535 53.7965 87.3633 52.5004C87.3633 49.9041 86.2784 47.4595 84.3466 45.5851Z" fill="#6B60A5"/>
<path d="M55.5529 37.0026L58.3193 42.306C58.7391 43.0936 59.5049 43.6473 60.394 43.7703L66.2355 44.5702C69.36 45.0009 70.5702 48.8523 68.2608 50.9934L64.2595 54.6848C63.5679 55.3247 63.2468 56.2721 63.4197 57.195L64.3953 62.6091C64.9387 65.6239 61.8019 67.9742 59.0479 66.596L53.4657 63.8273C52.6878 63.4459 51.7738 63.4459 50.9958 63.8273L45.4137 66.596C42.6597 67.9619 39.5228 65.6239 40.0662 62.6091L41.0418 57.195C41.2147 56.2721 40.8936 55.3247 40.202 54.6848L36.2007 50.9934C33.8913 48.8646 35.1015 45.0009 38.2261 44.5702L44.0675 43.7703C44.9567 43.6473 45.7348 43.1059 46.1423 42.306L48.9087 37.0026C50.3166 34.3325 54.1573 34.3325 55.5529 37.0026Z" fill="url(#paint0_linear_7147_2349)"/>
</g>
<defs>
<linearGradient id="paint0_linear_7147_2349" x1="67.5" y1="72.5" x2="40.9355" y2="40.2611" gradientUnits="userSpaceOnUse">
<stop stop-color="#CFBCED"/>
<stop offset="0.57" stop-color="white"/>
<stop offset="1" stop-color="white"/>
</linearGradient>
<clipPath id="clip0_7147_2349">
<rect width="105" height="105" fill="white"/>
</clipPath>
</defs>
</svg>
