<svg width="24" height="25" viewBox="0 0 24 25" fill="none" xmlns="http://www.w3.org/2000/svg">
<path d="M8 12.6992H15" stroke="#6B60A5" stroke-width="1.8" stroke-miterlimit="10" stroke-linecap="round" stroke-linejoin="round"/>
<path d="M8 16.6992H12.38" stroke="#6B60A5" stroke-width="1.8" stroke-miterlimit="10" stroke-linecap="round" stroke-linejoin="round"/>
<path d="M10 6.5H14C16 6.5 16 5.5 16 4.5C16 2.5 15 2.5 14 2.5H10C9 2.5 8 2.5 8 4.5C8 6.5 9 6.5 10 6.5Z" stroke="#6B60A5" stroke-width="1.8" stroke-miterlimit="10" stroke-linecap="round" stroke-linejoin="round"/>
<path d="M16 4.51953C19.33 4.69953 21 5.92953 21 10.4995V16.4995C21 20.4995 20 22.4995 15 22.4995H9C4 22.4995 3 20.4995 3 16.4995V10.4995C3 5.93953 4.67 4.69953 8 4.51953" stroke="#6B60A5" stroke-width="1.8" stroke-miterlimit="10" stroke-linecap="round" stroke-linejoin="round"/>
</svg>
