<svg width="37" height="37" viewBox="0 0 37 37" fill="none" xmlns="http://www.w3.org/2000/svg">
<path d="M10.6193 33.8108H26.5672C30.7672 33.8108 32.4411 31.239 32.6389 28.1042L33.4302 15.5347C33.6432 12.2477 31.0259 9.46293 27.7237 9.46293C26.7954 9.46293 25.9432 8.93033 25.5172 8.10859L24.4215 5.90206C23.7215 4.51728 21.8954 3.37598 20.3432 3.37598H16.8585C15.2911 3.37598 13.465 4.51728 12.765 5.90206L11.6693 8.10859C11.2432 8.93033 10.3911 9.46293 9.46281 9.46293C6.16063 9.46293 3.54324 12.2477 3.75628 15.5347L4.54759 28.1042C4.7302 31.239 6.41933 33.8108 10.6193 33.8108Z" stroke="#6B60A5" stroke-width="2.1913" stroke-linecap="round" stroke-linejoin="round"/>
<path d="M16.3115 12.5068H20.8767" stroke="#6B60A5" stroke-width="2.1913" stroke-linecap="round" stroke-linejoin="round"/>
<path d="M18.5931 27.7243C21.317 27.7243 23.5388 25.5026 23.5388 22.7787C23.5388 20.0547 21.317 17.833 18.5931 17.833C15.8692 17.833 13.6475 20.0547 13.6475 22.7787C13.6475 25.5026 15.8692 27.7243 18.5931 27.7243Z" stroke="#6B60A5" stroke-width="2.1913" stroke-linecap="round" stroke-linejoin="round"/>
</svg>
