<svg width="105" height="105" viewBox="0 0 105 105" fill="none" xmlns="http://www.w3.org/2000/svg">
<g clip-path="url(#clip0_7283_13729)">
<path d="M101.825 26.6294C99.0691 16.4842 88.5179 5.93086 78.3706 3.17461C72.1485 1.62422 63.8142 0.0266602 52.5 0C41.1858 0.0266602 32.8515 1.62422 26.6294 3.17461C16.4842 5.93086 5.93086 16.4821 3.17461 26.6294C1.62422 32.8515 0.0266602 41.1858 0 52.5C0.0266602 63.8142 1.62422 72.1485 3.17461 78.3706C5.93086 88.5179 16.4842 99.0691 26.6294 101.825C32.8515 103.376 41.1899 104.973 52.5 105C63.8121 104.973 72.1485 103.376 78.3706 101.825C88.5179 99.0691 99.0691 88.5179 101.825 78.3706C103.376 72.1485 104.973 63.8101 105 52.5C104.973 41.1858 103.376 32.8515 101.825 26.6294Z" fill="#FBF7FF"/>
<path d="M68.6343 39.9159H34.5091C34.4138 39.916 34.3196 39.9354 34.2321 39.973C34.1446 40.0107 34.0656 40.0657 34.0001 40.1348C33.9342 40.204 33.8831 40.2859 33.85 40.3755C33.8168 40.4651 33.8023 40.5605 33.8073 40.6559L35.6005 75.255C35.6798 76.7942 36.9489 78 38.491 78H64.6522C66.1944 78 67.4635 76.7942 67.5427 75.255L69.3359 40.6559C69.3409 40.5605 69.3264 40.4651 69.2932 40.3755C69.2601 40.2859 69.209 40.204 69.1431 40.1348C69.0776 40.0657 68.9987 40.0106 68.9112 39.973C68.8237 39.9354 68.7295 39.916 68.6343 39.9159ZM40.4319 46.891C40.4189 46.4202 40.5906 45.9713 40.9159 45.6279C41.2411 45.2845 41.6799 45.0878 42.1508 45.0737C43.1306 45.0536 43.9439 45.8226 43.9721 46.7946L44.6237 71.0822C44.6309 71.3145 44.5919 71.5459 44.5088 71.7629C44.4257 71.9799 44.3002 72.1783 44.1397 72.3463C43.98 72.5153 43.7886 72.6511 43.5763 72.7461C43.3641 72.841 43.1352 72.8932 42.9028 72.8996H42.8507C42.3978 72.8996 41.969 72.7279 41.6368 72.4127C41.468 72.2535 41.3324 72.0626 41.2376 71.8508C41.1428 71.639 41.0908 71.4106 41.0846 71.1787L40.4319 46.891ZM49.8016 71.1032V46.8126C49.8016 45.8356 50.5958 45.0414 51.5717 45.0414C52.5475 45.0414 53.3418 45.8356 53.3418 46.8126V71.1032C53.3418 72.0811 52.5475 72.8764 51.5717 72.8764C50.5958 72.8764 49.8016 72.0812 49.8016 71.1032ZM62.0587 71.1765C62.0527 71.4088 62.0008 71.6376 61.9061 71.8497C61.8113 72.0618 61.6755 72.2531 61.5066 72.4125C61.1743 72.7278 60.7456 72.8995 60.2927 72.8995H60.2375C60.0054 72.893 59.7769 72.8408 59.5651 72.7456C59.3533 72.6505 59.1624 72.5145 59.0035 72.3453C58.8428 72.1771 58.7172 71.9786 58.6341 71.7614C58.551 71.5442 58.5121 71.3126 58.5195 71.0802L59.1711 46.7966C59.1993 45.8237 60.0065 45.0496 60.9804 45.0737H60.9924C61.4633 45.0878 61.9021 45.2845 62.2273 45.6279C62.5526 45.9713 62.7243 46.4202 62.7113 46.891L62.0587 71.1765ZM72.1434 34.5031V36.3666H31V34.5031C31 33.475 31.8363 32.6387 32.8644 32.6387H46.3978C46.571 32.6386 46.7381 32.5746 46.867 32.459C46.996 32.3434 47.0777 32.1843 47.0966 32.0121C47.3467 29.7249 49.2704 28 51.5717 28C53.8729 28 55.7966 29.7249 56.0467 32.0121C56.0656 32.1843 56.1474 32.3434 56.2763 32.459C56.4053 32.5746 56.5723 32.6386 56.7455 32.6387H70.2789C71.307 32.6387 72.1434 33.475 72.1434 34.5031Z" fill="#6B60A5"/>
</g>
<defs>
<clipPath id="clip0_7283_13729">
<rect width="105" height="105" fill="white"/>
</clipPath>
</defs>
</svg>
