<svg width="198" height="132" viewBox="0 0 198 132" fill="none" xmlns="http://www.w3.org/2000/svg">
    <g clip-path="url(#clip0_7147_1829)">
        <path d="M70.8422 76.1077C77.6107 64.1638 90.5216 54.9928 104.189 55.8762C94.1075 66.8739 88.2288 81.0943 87.5929 96.0214C87.3685 101.779 87.7166 108.206 83.9057 112.518C81.5345 115.2 77.9101 116.499 74.3465 116.772C70.7828 117.044 67.2199 116.399 63.7038 115.755L62.8508 116.018C62.5261 102.283 64.0738 88.0517 70.8422 76.1077Z" fill="#CED0D6"/>
        <path d="M104.213 56.1671C94.1059 61.0479 85.488 69.1993 80.1977 79.1406C79.054 81.2898 78.0802 83.57 77.6554 85.9808C77.2305 88.3927 77.5273 90.6886 78.3485 92.9794C79.0993 95.0736 80.109 97.1286 80.3392 99.3695C80.5818 101.731 79.7155 103.94 78.156 105.693C76.248 107.837 73.6856 109.166 71.1348 110.378C68.3026 111.724 65.3396 113.077 63.3336 115.589C63.0905 115.894 62.6339 115.498 62.8766 115.194C66.3667 110.823 72.3409 110.002 76.4837 106.481C78.4168 104.838 79.8681 102.601 79.7765 99.9798C79.6964 97.6876 78.657 95.5676 77.8786 93.4537C77.0612 91.2341 76.6536 89.0024 76.9467 86.6359C77.2466 84.2152 78.1335 81.8921 79.2175 79.7229C81.662 74.8308 85.0075 70.3396 88.8399 66.4572C93.2445 61.9944 98.3776 58.3205 104.017 55.5941C104.366 55.4255 104.559 55.9996 104.213 56.1671Z" fill="white"/>
        <path d="M81.7454 75.8166C80.196 74.6801 79.0998 73.0281 78.6525 71.1557C78.2052 69.2832 78.436 67.3123 79.3036 65.5947C79.4803 65.2478 80.026 65.507 79.849 65.8544C79.0382 67.4523 78.8234 69.2883 79.2435 71.031C79.6636 72.7738 80.6908 74.3085 82.1398 75.3582C82.4545 75.5867 82.0583 76.0438 81.7454 75.8166Z" fill="white"/>
        <path d="M77.8246 91.9661C81.707 91.3971 85.233 89.3809 87.6994 86.3198C87.9436 86.0163 88.4002 86.4123 88.1564 86.7155C85.5838 89.8962 81.9102 91.9868 77.8688 92.5701C77.4835 92.6254 77.4414 92.0212 77.8246 91.9661Z" fill="white"/>
        <path d="M93.5449 62.7419C94.053 63.307 94.6931 63.7365 95.4077 63.9921C96.1223 64.2477 96.8889 64.3212 97.6388 64.206C98.0232 64.1459 98.0649 64.7501 97.683 64.8099C96.8539 64.9333 96.0073 64.851 95.2172 64.5704C94.4271 64.2899 93.7175 63.8194 93.1505 63.2003C93.0921 63.1464 93.0564 63.0723 93.0506 62.993C93.0448 62.9136 93.0693 62.8351 93.1192 62.7733C93.1717 62.7128 93.2459 62.6756 93.3256 62.6698C93.4053 62.6639 93.4841 62.6898 93.5449 62.7419Z" fill="white"/>
        <path d="M131.381 93.5581C131.142 93.6025 130.903 93.647 130.662 93.696C127.453 94.3101 124.299 95.1848 121.231 96.3113C120.992 96.3947 120.752 96.4827 120.516 96.5727C113.153 99.3658 106.372 103.506 100.516 108.783C98.1872 110.884 96.0216 113.161 94.0376 115.592C91.2977 118.95 88.5934 122.81 85.013 125C84.6421 125.232 84.2571 125.442 83.8603 125.627L63.2351 117.044C63.198 117.001 63.1587 116.963 63.1213 116.92L62.2822 116.615C62.3758 116.482 62.4757 116.347 62.5693 116.214C62.6233 116.137 62.6819 116.062 62.7358 115.985C62.7733 115.934 62.811 115.883 62.8419 115.835C62.8543 115.818 62.8669 115.801 62.8773 115.789C62.9082 115.741 62.942 115.7 62.9709 115.657C63.5273 114.898 64.09 114.141 64.659 113.388C64.661 113.383 64.661 113.383 64.6675 113.38C69.0174 107.649 73.8825 102.232 79.4125 97.7277C79.579 97.5923 79.7471 97.452 79.923 97.3205C82.4269 95.304 85.0909 93.4963 87.8884 91.9153C89.423 91.0545 91.0001 90.2722 92.6135 89.5714C96.7859 87.7686 101.215 86.6355 105.738 86.2134C114.756 85.3734 123.941 87.4358 130.857 93.1187C131.034 93.2642 131.206 93.4079 131.381 93.5581Z" fill="#CED0D6"/>
        <path d="M131.233 93.8039C120.234 91.5968 108.461 92.9003 98.2708 97.6427C96.0677 98.668 93.9217 99.9004 92.1356 101.569C90.3487 103.238 89.2078 105.25 88.4886 107.575C87.8311 109.701 87.404 111.952 86.2429 113.88C85.019 115.912 83.0018 117.152 80.7047 117.61C77.8942 118.17 75.0506 117.683 72.2864 117.111C69.2173 116.475 66.0394 115.765 62.9301 116.56C62.5534 116.656 62.4266 116.064 62.8027 115.968C68.2124 114.586 73.4755 117.538 78.8963 117.229C81.4257 117.085 83.9272 116.176 85.4273 114.027C86.7391 112.149 87.1815 109.828 87.8287 107.67C88.5082 105.404 89.5222 103.376 91.1765 101.664C92.8688 99.9121 94.9713 98.5929 97.1386 97.5156C102.027 95.086 107.393 93.5206 112.783 92.7353C118.979 91.8323 125.282 91.9991 131.421 93.2284C131.801 93.3046 131.611 93.8797 131.233 93.8039Z" fill="white"/>
        <path d="M101.5 95.9223C100.945 94.0791 101.061 92.098 101.828 90.3328C102.594 88.5676 103.962 87.1332 105.685 86.2859C106.035 86.1156 106.315 86.6522 105.965 86.8227C104.358 87.6087 103.085 88.945 102.374 90.5902C101.664 92.2354 101.563 94.0812 102.09 95.7945C102.204 96.167 101.613 96.2926 101.5 95.9223Z" fill="white"/>
        <path d="M88.6798 106.449C92.1213 108.34 96.1466 108.859 99.9532 107.905C100.33 107.81 100.457 108.402 100.081 108.497C96.1175 109.483 91.9296 108.933 88.3527 106.958C88.0119 106.769 88.3409 106.262 88.6798 106.449Z" fill="white"/>
        <path d="M118.765 92.6058C118.832 93.3638 119.085 94.0935 119.502 94.7291C119.919 95.3647 120.487 95.8864 121.155 96.2474C121.498 96.4315 121.169 96.9392 120.828 96.7563C120.092 96.354 119.465 95.7771 119.003 95.0758C118.54 94.3746 118.256 93.5704 118.175 92.7335C118.161 92.6553 118.177 92.5746 118.22 92.5077C118.263 92.4409 118.329 92.393 118.406 92.3737C118.485 92.3572 118.566 92.3723 118.633 92.4158C118.7 92.4592 118.748 92.5275 118.765 92.6058Z" fill="white"/>
        <path d="M92.0948 107.718C89.2063 93.7076 85.5956 89.0365 85.5956 89.0365L84.2163 87.9635L82.5575 86.6709L82.5655 86.5047L82.1721 86.3706L82.0796 86.2986L81.9282 86.1819L81.9038 86.2082L81.8524 86.2616L74.3462 83.7021L64.8233 80.4572L60.4136 74.7074C59.6955 73.7709 58.7708 73.0141 57.7123 72.4961C56.6537 71.9781 55.4899 71.7131 54.3122 71.7219L40.229 71.8264C38.3248 71.8406 36.4947 72.5688 35.0986 73.8679L25.842 82.4812L11.4183 89.3915L11.394 89.3671L11.2425 89.4756L9.01396 90.5446L9.10593 91.0248L7.72657 92.0233C7.72657 92.0233 4.11594 96.3697 1.22742 109.406C0.492619 112.723 0.130921 119.839 0.000366883 128.607C-0.00619082 129.051 0.07522 129.491 0.239864 129.903C0.404507 130.315 0.6491 130.69 0.95942 131.006C1.26974 131.322 1.63959 131.573 2.04748 131.744C2.45537 131.915 2.89314 132.004 3.33536 132.004H80.3748L89.9903 132.004C90.4322 132.004 90.8697 131.915 91.2773 131.744C91.6849 131.573 92.0546 131.322 92.3648 131.007C92.6751 130.691 92.9198 130.317 93.0847 129.905C93.2495 129.494 93.3313 129.054 93.3253 128.611C93.1978 119.07 92.8363 111.315 92.0948 107.718Z" fill="#6B60A5"/>
        <path d="M101.983 12.5527C98.9856 12.5527 96.1111 13.7472 93.9917 15.8732C91.8723 17.9993 90.6816 20.8829 90.6816 23.8897C90.6816 26.8964 91.8723 29.78 93.9917 31.9061C96.1111 34.0322 98.9856 35.2266 101.983 35.2266H186.204C189.202 35.2266 192.076 34.0322 194.196 31.9061C196.315 29.78 197.506 26.8964 197.506 23.8897C197.506 20.8829 196.315 17.9993 194.196 15.8732C192.076 13.7472 189.202 12.5527 186.204 12.5527H101.983Z" fill="#E5E5E5"/>
        <path d="M101.983 14.8438C99.5922 14.8438 97.2994 15.7964 95.6089 17.4923C93.9184 19.1881 92.9688 21.4881 92.9688 23.8863C92.9688 26.2845 93.9184 28.5846 95.6089 30.2804C97.2994 31.9762 99.5922 32.9289 101.983 32.9289H186.204C188.595 32.9289 190.888 31.9762 192.578 30.2804C194.269 28.5846 195.218 26.2845 195.218 23.8863C195.218 21.4881 194.269 19.1881 192.578 17.4923C190.888 15.7964 188.595 14.8438 186.204 14.8438H101.983Z" fill="white"/>
        <path d="M49.4835 66.4116C59.6733 66.4116 67.9338 58.125 67.9338 47.903C67.9338 37.6811 59.6733 29.3945 49.4835 29.3945C39.2937 29.3945 31.0332 37.6811 31.0332 47.903C31.0332 58.125 39.2937 66.4116 49.4835 66.4116Z" fill="#FEB1AF"/>
        <path d="M44.7622 65.5075C44.6834 65.3334 44.6048 65.1587 44.5264 64.9834C44.5566 64.9844 44.5865 64.9887 44.6167 64.9895L44.7622 65.5075Z" fill="#2F2E41"/>
        <path d="M30.5172 30.2335C31.4504 29.4868 32.541 28.7997 33.7341 28.8383C34.9272 28.8768 36.137 29.9578 35.8899 31.1293C38.0813 27.2369 41.5694 24.2433 45.7419 22.6737C49.9144 21.1042 54.5047 21.0592 58.7071 22.5465C61.6723 23.596 64.5803 25.6955 65.2614 28.775C65.4363 29.5655 65.4738 30.4323 65.9659 31.0742C66.5862 31.8835 67.7732 32.0666 68.7505 31.7819C68.7603 31.779 68.77 31.7761 68.7798 31.7732C68.9449 31.7167 69.1231 31.7111 69.2914 31.7573C69.4597 31.8034 69.6103 31.8992 69.7238 32.0321C69.8372 32.1651 69.9083 32.3291 69.9278 32.5031C69.9473 32.677 69.9143 32.8528 69.8331 33.0077L68.9941 34.5774C70.0517 34.8139 71.1507 34.7905 72.1974 34.5091C72.3712 34.4633 72.555 34.4727 72.7233 34.5358C72.8917 34.5989 73.0365 34.7128 73.1378 34.8617C73.2391 35.0107 73.292 35.1874 73.2892 35.3677C73.2865 35.548 73.2281 35.723 73.1223 35.8688C70.3557 39.6791 65.7337 42.1396 61.017 42.1107C57.6646 42.0902 54.2778 40.9312 51.0152 41.7046C49.753 42.0037 48.5737 42.5826 47.5636 43.3986C46.5535 44.2147 45.7384 45.2472 45.178 46.4205C44.6176 47.5938 44.3262 48.8781 44.3251 50.1791C44.3241 51.4801 44.6134 52.7648 45.1718 53.9391C44.1695 52.8393 42.232 53.0997 41.2067 54.178C40.1815 55.2562 39.9161 56.8656 40.0194 58.3521C40.1774 60.6257 41.0654 62.768 42.0015 64.8531C34.1529 64.6052 26.7295 59.0822 24.2308 51.6122C21.7215 44.1109 24.3513 35.1678 30.5172 30.2335Z" fill="#1F2125"/>
        <path opacity="0.27" d="M18.1611 103.484L23.336 131.729L26.4411 132L18.1611 103.484Z" fill="#100D23"/>
        <path opacity="0.27" d="M75.1647 101.355L69.9898 131.71L66.8848 132.001L75.1647 101.355Z" fill="#100D23"/>
        <path d="M34.9335 20.7334C33.9413 21.149 32.9059 20.6936 32.4717 19.6504C32.0309 18.5914 32.4426 17.5163 33.4507 17.094C34.459 16.6717 35.4759 17.1283 35.9238 18.2044C36.365 19.2644 35.9578 20.3044 34.9335 20.7334ZM33.0328 15.0094L32.2439 15.3399C32.0468 15.4215 31.8264 15.4259 31.6262 15.3522C31.4261 15.2786 31.2607 15.1322 31.163 14.9422L31.124 14.8656C30.2751 13.3299 30.1779 11.4634 30.8366 9.32095C31.4468 7.39907 31.7003 6.04742 31.1906 4.8229C30.6012 3.40712 29.3428 2.96362 27.7381 3.60608C27.1157 3.86679 26.9176 3.86263 26.4278 4.35006C26.3213 4.45737 26.1943 4.54207 26.0544 4.59909C25.9145 4.65611 25.7646 4.68429 25.6136 4.68194C25.4677 4.68022 25.3236 4.64903 25.1899 4.59024C25.0563 4.53145 24.9358 4.44625 24.8356 4.33974C24.6427 4.13447 24.5346 3.86341 24.5332 3.5813C24.5318 3.29919 24.6371 3.02704 24.828 2.81983C25.6513 1.9553 26.6442 1.27135 27.7443 0.811137C31.1922 -0.633151 32.9279 1.49913 33.7222 3.40733C34.4991 5.27376 34.0621 7.00549 33.3599 9.24826C32.7715 11.1119 32.8057 12.4928 33.4742 13.8658C33.5224 13.9696 33.5493 14.0821 33.5531 14.1966C33.5569 14.3111 33.5377 14.4252 33.4964 14.532C33.4552 14.6388 33.3929 14.7361 33.3132 14.8182C33.2336 14.9002 33.1382 14.9653 33.0328 15.0094Z" fill="white"/>
        <path d="M120.585 29.2971H103.828C103.775 29.2975 103.722 29.2873 103.673 29.2671C103.624 29.2469 103.579 29.2171 103.541 29.1795C103.503 29.1419 103.473 29.0971 103.453 29.0478C103.432 28.9985 103.422 28.9456 103.422 28.8922C103.422 28.8388 103.432 28.7859 103.453 28.7366C103.473 28.6873 103.503 28.6426 103.541 28.6049C103.579 28.5673 103.624 28.5375 103.673 28.5173C103.722 28.4972 103.775 28.487 103.828 28.4873H120.585C120.692 28.488 120.794 28.531 120.869 28.6069C120.944 28.6827 120.986 28.7853 120.986 28.8922C120.986 28.9991 120.944 29.1017 120.869 29.1775C120.794 29.2534 120.692 29.2964 120.585 29.2971Z" fill="#BDBAD0"/>
        <path d="M141.84 29.4328H125.083C125.03 29.4332 124.977 29.423 124.928 29.4028C124.879 29.3826 124.834 29.3529 124.796 29.3152C124.758 29.2776 124.728 29.2328 124.708 29.1835C124.687 29.1342 124.677 29.0814 124.677 29.028C124.677 28.9745 124.687 28.9217 124.708 28.8724C124.728 28.8231 124.758 28.7783 124.796 28.7407C124.834 28.703 124.879 28.6733 124.928 28.6531C124.977 28.6329 125.03 28.6227 125.083 28.6231H141.84C141.893 28.6227 141.946 28.6329 141.995 28.6531C142.045 28.6733 142.089 28.703 142.127 28.7407C142.165 28.7783 142.195 28.8231 142.215 28.8724C142.236 28.9217 142.246 28.9745 142.246 29.028C142.246 29.0814 142.236 29.1342 142.215 29.1835C142.195 29.2328 142.165 29.2776 142.127 29.3152C142.089 29.3529 142.045 29.3826 141.995 29.4028C141.946 29.423 141.893 29.4332 141.84 29.4328Z" fill="#BDBAD0"/>
        <path d="M163.097 29.5676H146.34C146.234 29.5669 146.132 29.5239 146.057 29.448C145.982 29.3722 145.939 29.2696 145.939 29.1627C145.939 29.0558 145.982 28.9532 146.057 28.8774C146.132 28.8015 146.234 28.7585 146.34 28.7578H163.097C163.151 28.7575 163.203 28.7677 163.253 28.7878C163.302 28.808 163.347 28.8378 163.384 28.8754C163.422 28.9131 163.452 28.9578 163.473 29.0071C163.493 29.0564 163.504 29.1093 163.504 29.1627C163.504 29.2161 163.493 29.269 163.473 29.3183C163.452 29.3676 163.422 29.4124 163.384 29.45C163.347 29.4876 163.302 29.5174 163.253 29.5376C163.203 29.5578 163.151 29.568 163.097 29.5676Z" fill="#BDBAD0"/>
        <path d="M184.355 29.7024H167.598C167.492 29.7016 167.39 29.6587 167.315 29.5828C167.239 29.5069 167.197 29.4044 167.197 29.2975C167.197 29.1906 167.239 29.088 167.315 29.0121C167.39 28.9363 167.492 28.8933 167.598 28.8926H184.355C184.462 28.8933 184.564 28.9363 184.639 29.0121C184.714 29.088 184.756 29.1906 184.756 29.2975C184.756 29.4044 184.714 29.5069 184.639 29.5828C184.564 29.6587 184.462 29.7016 184.355 29.7024Z" fill="#BDBAD0"/>
        <path d="M112.173 25.5746C113.893 25.5746 115.287 24.1759 115.287 22.4504C115.287 20.7249 113.893 19.3262 112.173 19.3262C110.453 19.3262 109.059 20.7249 109.059 22.4504C109.059 24.1759 110.453 25.5746 112.173 25.5746Z" fill="#6B60A5"/>
        <path d="M133.555 25.5746C135.275 25.5746 136.669 24.1759 136.669 22.4504C136.669 20.7249 135.275 19.3262 133.555 19.3262C131.835 19.3262 130.44 20.7249 130.44 22.4504C130.44 24.1759 131.835 25.5746 133.555 25.5746Z" fill="#6B60A5"/>
        <path d="M154.941 25.5746C156.661 25.5746 158.055 24.1759 158.055 22.4504C158.055 20.7249 156.661 19.3262 154.941 19.3262C153.221 19.3262 151.826 20.7249 151.826 22.4504C151.826 24.1759 153.221 25.5746 154.941 25.5746Z" fill="#6B60A5"/>
        <path d="M176.326 25.5746C178.046 25.5746 179.441 24.1759 179.441 22.4504C179.441 20.7249 178.046 19.3262 176.326 19.3262C174.606 19.3262 173.212 20.7249 173.212 22.4504C173.212 24.1759 174.606 25.5746 176.326 25.5746Z" fill="#6B60A5"/>
    </g>
    <defs>
        <clipPath id="clip0_7147_1829">
            <rect width="197.502" height="131.668" fill="white" transform="translate(0 0.332031)"/>
        </clipPath>
    </defs>
</svg>
