<svg width="37" height="37" viewBox="0 0 37 37" fill="none" xmlns="http://www.w3.org/2000/svg">
<path d="M14.0282 33.8108H23.1586C30.7673 33.8108 33.8108 30.7673 33.8108 23.1586V14.0282C33.8108 6.41946 30.7673 3.37598 23.1586 3.37598H14.0282C6.41946 3.37598 3.37598 6.41946 3.37598 14.0282V23.1586C3.37598 30.7673 6.41946 33.8108 14.0282 33.8108Z" stroke="#6B60A5" stroke-width="2.1913" stroke-linecap="round" stroke-linejoin="round"/>
<path d="M14.0288 15.5508C15.7097 15.5508 17.0723 14.1882 17.0723 12.5073C17.0723 10.8265 15.7097 9.46387 14.0288 9.46387C12.348 9.46387 10.9854 10.8265 10.9854 12.5073C10.9854 14.1882 12.348 15.5508 14.0288 15.5508Z" stroke="#6B60A5" stroke-width="2.1913" stroke-linecap="round" stroke-linejoin="round"/>
<path d="M4.39648 29.1697L11.8987 24.1328C13.1008 23.3263 14.8356 23.4176 15.916 24.3458L16.4182 24.7871C17.6052 25.8067 19.5226 25.8067 20.7095 24.7871L27.04 19.3545C28.2269 18.335 30.1443 18.335 31.3313 19.3545L33.8117 21.485" stroke="#6B60A5" stroke-width="2.1913" stroke-linecap="round" stroke-linejoin="round"/>
</svg>
