<svg width="24" height="22" viewBox="0 0 24 22" fill="none" xmlns="http://www.w3.org/2000/svg">
<path d="M9.8794 1.413L9.87982 1.41267C11.0544 0.46928 12.9397 0.474806 14.1318 1.42448C14.132 1.42458 14.1321 1.42469 14.1322 1.42479L21.2234 7.09768C21.224 7.09817 21.2246 7.09867 21.2252 7.09916C21.6339 7.433 21.9878 7.95552 22.2161 8.55307C22.4443 9.1502 22.5294 9.77604 22.4499 10.2972L21.0861 18.4585C21.086 18.4591 21.0859 18.4597 21.0858 18.4603C20.8153 20.0125 19.3049 21.292 17.7415 21.292H6.25813C4.67162 21.292 3.19505 20.0436 2.92469 18.4715C2.92462 18.4711 2.92456 18.4708 2.92449 18.4704L1.55989 10.3044L1.55968 10.3032C1.47069 9.77811 1.55056 9.15103 1.7782 8.55408C2.00583 7.95718 2.36411 7.43517 2.78262 7.10126L2.78357 7.1005L9.8794 1.413ZM11.9998 18.8545C12.7431 18.8545 13.354 18.2437 13.354 17.5003V14.2503C13.354 13.507 12.7431 12.8962 11.9998 12.8962C11.2565 12.8962 10.6456 13.507 10.6456 14.2503V17.5003C10.6456 18.2437 11.2565 18.8545 11.9998 18.8545Z" fill="#6B60A5" stroke="#6B60A5" stroke-width="1.08333"/>
</svg>
