<svg width="24" height="25" viewBox="0 0 24 25" fill="none" xmlns="http://www.w3.org/2000/svg">
<path d="M10.7499 2.95031C11.4499 2.36031 12.5799 2.36031 13.2599 2.95031L14.8399 4.30031C15.1399 4.55031 15.7099 4.76031 16.1099 4.76031H17.8099C18.8699 4.76031 19.7399 5.63031 19.7399 6.69031V8.39031C19.7399 8.79031 19.9499 9.35031 20.1999 9.65031L21.5499 11.2303C22.1399 11.9303 22.1399 13.0603 21.5499 13.7403L20.1999 15.3203C19.9499 15.6203 19.7399 16.1803 19.7399 16.5803V18.2803C19.7399 19.3403 18.8699 20.2103 17.8099 20.2103H16.1099C15.7099 20.2103 15.1499 20.4203 14.8499 20.6703L13.2699 22.0203C12.5699 22.6103 11.4399 22.6103 10.7599 22.0203L9.17988 20.6703C8.87988 20.4203 8.30988 20.2103 7.91988 20.2103H6.16988C5.10988 20.2103 4.23988 19.3403 4.23988 18.2803V16.5703C4.23988 16.1803 4.03988 15.6103 3.78988 15.3203L2.43988 13.7303C1.85988 13.0403 1.85988 11.9203 2.43988 11.2303L3.78988 9.64031C4.03988 9.34031 4.23988 8.78031 4.23988 8.39031V6.70031C4.23988 5.64031 5.10988 4.77031 6.16988 4.77031H7.89988C8.29988 4.77031 8.85988 4.56031 9.15988 4.31031L10.7499 2.95031Z" stroke="#6B60A5" stroke-width="1.8" stroke-linecap="round" stroke-linejoin="round"/>
<path d="M12 8.63086V13.4609" stroke="#6B60A5" stroke-width="1.8" stroke-linecap="round" stroke-linejoin="round"/>
<path d="M11.9941 16.5H12.0031" stroke="#6B60A5" stroke-width="2.4" stroke-linecap="round" stroke-linejoin="round"/>
</svg>
