<svg width="26" height="26" viewBox="0 0 26 26" fill="none" xmlns="http://www.w3.org/2000/svg">
<path fill-rule="evenodd" clip-rule="evenodd" d="M5.9399 6.19302C6.67439 6.09366 7.5738 6.07624 8.65556 6.07419C8.71983 5.23774 9.09752 4.45639 9.71308 3.88641C10.3286 3.31643 11.1367 2.99986 11.9756 3H14.0244C14.863 3.0001 15.6706 3.31664 16.2859 3.88638C16.9013 4.45612 17.2789 5.23708 17.3434 6.07317C18.4262 6.07624 19.3256 6.09366 20.0601 6.19302C20.982 6.31595 21.7585 6.58229 22.3752 7.19795C22.9919 7.81463 23.2562 8.59112 23.3812 9.51307C23.5 10.4012 23.5 11.5311 23.5 12.9315V17.1417C23.5 18.542 23.5 19.672 23.3812 20.5601C23.2562 21.482 22.9919 22.2585 22.3752 22.8752C21.7585 23.4919 20.982 23.7562 20.0601 23.8812C19.172 24 18.042 24 16.6417 24H9.35829C7.95795 24 6.82805 24 5.9399 23.8812C5.01795 23.7562 4.24146 23.4919 3.62478 22.8752C3.0081 22.2585 2.7438 21.482 2.61985 20.5601C2.5 19.672 2.5 18.542 2.5 17.1417V12.9315C2.5 11.5311 2.5 10.4012 2.61985 9.51307C2.74278 8.59112 3.00912 7.81463 3.62478 7.19795C4.24146 6.58127 5.01795 6.31698 5.9399 6.19302ZM15.7986 6.07317H10.2014C10.2629 5.64652 10.4762 5.25635 10.8021 4.97414C11.1279 4.69194 11.5445 4.5366 11.9756 4.53659H14.0244C14.4555 4.5366 14.8721 4.69194 15.1979 4.97414C15.5238 5.25635 15.7371 5.64652 15.7986 6.07317ZM21.9614 11.9665C17.7358 13.7438 15.7034 14.5602 13.5839 14.6586C13.1946 14.677 12.8054 14.677 12.4161 14.6586C10.2956 14.5602 8.26424 13.7438 4.03863 11.9665C4.04376 11.021 4.06424 10.2988 4.1421 9.71795C4.24351 8.96605 4.42893 8.56859 4.71166 8.28483C4.99541 8.00107 5.39288 7.81668 6.1458 7.71527C6.9182 7.6118 7.94463 7.60976 9.41463 7.60976H16.5854C18.0554 7.60976 19.0808 7.6118 19.8552 7.71527C20.6071 7.81668 21.0046 8.0021 21.2883 8.28483C21.5721 8.56859 21.7565 8.96605 21.8579 9.71898C21.9358 10.2988 21.9562 11.02 21.9614 11.9665Z" fill="#6B60A5"/>
</svg>
