<svg width="27" height="26" viewBox="0 0 27 26" fill="none" xmlns="http://www.w3.org/2000/svg">
<path fill-rule="evenodd" clip-rule="evenodd" d="M6.4399 6.19302C7.17439 6.09366 8.0738 6.07624 9.15556 6.07419C9.21983 5.23774 9.59752 4.45639 10.2131 3.88641C10.8286 3.31643 11.6367 2.99986 12.4756 3H14.5244C15.363 3.0001 16.1706 3.31664 16.7859 3.88638C17.4013 4.45612 17.7789 5.23708 17.8434 6.07317C18.9262 6.07624 19.8256 6.09366 20.5601 6.19302C21.482 6.31595 22.2585 6.58229 22.8752 7.19795C23.4919 7.81463 23.7562 8.59112 23.8812 9.51307C24 10.4012 24 11.5311 24 12.9315V17.1417C24 18.542 24 19.672 23.8812 20.5601C23.7562 21.482 23.4919 22.2585 22.8752 22.8752C22.2585 23.4919 21.482 23.7562 20.5601 23.8812C19.672 24 18.542 24 17.1417 24H9.85829C8.45795 24 7.32805 24 6.4399 23.8812C5.51795 23.7562 4.74146 23.4919 4.12478 22.8752C3.5081 22.2585 3.2438 21.482 3.11985 20.5601C3 19.672 3 18.542 3 17.1417V12.9315C3 11.5311 3 10.4012 3.11985 9.51307C3.24278 8.59112 3.50912 7.81463 4.12478 7.19795C4.74146 6.58127 5.51795 6.31698 6.4399 6.19302ZM16.2986 6.07317H10.7014C10.7629 5.64652 10.9762 5.25635 11.3021 4.97414C11.6279 4.69194 12.0445 4.5366 12.4756 4.53659H14.5244C14.9555 4.5366 15.3721 4.69194 15.6979 4.97414C16.0238 5.25635 16.2371 5.64652 16.2986 6.07317ZM6.64478 22.3579C5.89288 22.2565 5.49541 22.0711 5.21166 21.7883C4.9279 21.5046 4.74351 21.1071 4.6421 20.3542C4.53863 19.5808 4.53659 18.5554 4.53659 17.0854V13.6332C8.31454 15.2189 10.5211 16.0856 12.8444 16.1941C13.2808 16.2146 13.7192 16.2146 14.1556 16.1941C16.4789 16.0856 18.6855 15.2189 22.4634 13.6332V17.0854C22.4634 18.5554 22.4614 19.5808 22.3579 20.3552C22.2565 21.1071 22.0711 21.5046 21.7883 21.7883C21.5046 22.0721 21.1071 22.2565 20.3542 22.3579C19.5808 22.4614 18.5554 22.4634 17.0854 22.4634H9.91463C8.44463 22.4634 7.4182 22.4614 6.64478 22.3579ZM22.4614 11.9665C18.2358 13.7438 16.2034 14.5602 14.0839 14.6586C13.6946 14.677 13.3054 14.677 12.9161 14.6586C10.7956 14.5602 8.76424 13.7438 4.53863 11.9665C4.54376 11.021 4.56424 10.2988 4.6421 9.71795C4.74351 8.96605 4.92893 8.56859 5.21166 8.28483C5.49541 8.00107 5.89288 7.81668 6.6458 7.71527C7.4182 7.6118 8.44463 7.60976 9.91463 7.60976H17.0854C18.5554 7.60976 19.5808 7.6118 20.3552 7.71527C21.1071 7.81668 21.5046 8.0021 21.7883 8.28483C22.0721 8.56859 22.2565 8.96605 22.3579 9.71898C22.4358 10.2988 22.4562 11.02 22.4614 11.9665Z" fill="#808080"/>
</svg>
