<svg width="250" height="149" viewBox="0 0 250 149" fill="none" xmlns="http://www.w3.org/2000/svg">
    <g clip-path="url(#clip0_7147_1685)">
        <path d="M191.406 147.315C188.206 144.619 186.261 140.36 186.771 136.214C187.281 132.068 190.439 128.256 194.535 127.376C198.631 126.495 203.301 128.932 204.545 132.921C205.23 125.231 206.019 117.218 210.12 110.669C213.834 104.739 220.266 100.496 227.238 99.7366C234.209 98.9775 241.549 101.845 245.896 107.33C250.244 112.815 251.309 120.789 248.264 127.087C246.02 131.726 241.888 135.178 237.558 137.987C223.566 146.987 206.784 150.647 190.301 148.293L191.406 147.315Z" fill="#C4C4C5"/>
        <path d="M239.003 102.003C233.251 106.673 227.974 111.897 223.248 117.598C215.853 126.49 209.868 136.46 205.503 147.16C205.184 147.94 206.455 148.28 206.771 147.508C213.913 130.119 225.314 114.792 239.932 102.93C240.589 102.397 239.654 101.474 239.003 102.003Z" fill="white"/>
        <path d="M80.479 146.582C84.8752 142.879 87.5454 137.029 86.8452 131.334C86.1449 125.64 81.8076 120.404 76.1815 119.195C70.5554 117.986 64.142 121.333 62.4331 126.812C61.4927 116.249 60.409 105.244 54.7756 96.2484C49.6746 88.1034 40.8397 82.2753 31.2647 81.2327C21.6897 80.1901 11.6084 84.128 5.6368 91.6619C-0.334798 99.1959 -1.79692 110.149 2.38543 118.798C5.46642 125.17 11.1427 129.912 17.09 133.77C36.064 146.078 59.6013 151.211 81.9973 147.925" fill="#C4C4C5"/>
        <path d="M15.1055 84.3469C23.0061 90.762 30.2541 97.9368 36.7446 105.768C43.2361 113.59 48.9512 122.022 53.8095 130.945C56.5251 135.95 58.9646 141.099 61.1171 146.37C61.556 147.442 59.8096 147.909 59.3756 146.848C55.563 137.557 50.8461 128.66 45.2926 120.286C39.766 111.942 33.4405 104.152 26.405 97.0254C22.4257 92.9967 18.2272 89.1891 13.8285 85.62C12.9269 84.8881 14.2114 83.6211 15.1055 84.3469Z" fill="white"/>
        <path d="M179.454 148.674H74.5693V41.3938C74.5693 18.5691 93.1964 0 116.092 0H137.931C160.827 0 179.454 18.5691 179.454 41.3938V148.674Z" fill="#CCCCCC"/>
        <path d="M157.614 148.674H74.5685V41.3936C74.5456 32.6478 77.3237 24.1229 82.4983 17.0603C82.6891 16.8011 82.8793 16.5453 83.0755 16.2923C85.5785 13.0197 88.557 10.1377 91.9129 7.74119C92.1025 7.60369 92.2928 7.46858 92.486 7.33346C95.2941 5.39624 98.3317 3.81259 101.53 2.61858C101.72 2.54682 101.913 2.47493 102.106 2.40597C104.999 1.37702 107.997 0.672191 111.045 0.304504C111.234 0.278765 111.429 0.258624 111.623 0.238483C114.594 -0.0781923 117.59 -0.0781923 120.561 0.238483C120.754 0.258624 120.948 0.278762 121.14 0.304779C124.188 0.672491 127.185 1.37723 130.077 2.40598C130.27 2.47494 130.463 2.54683 130.654 2.61873C133.812 3.79768 136.814 5.35769 139.592 7.26395C139.785 7.39613 139.979 7.53125 140.169 7.66637C142.05 9.00493 143.817 10.4962 145.452 12.1249C146.763 13.4312 147.984 14.8238 149.108 16.2931C149.304 16.5453 149.494 16.8011 149.684 17.0599C154.859 24.1226 157.637 32.6476 157.614 41.3936V148.674Z" fill="#EAEAEA"/>
        <path d="M150.862 100.691C153.402 100.691 155.46 98.6391 155.46 96.1078C155.46 93.5765 153.402 91.5244 150.862 91.5244C148.323 91.5244 146.265 93.5765 146.265 96.1078C146.265 98.6391 148.323 100.691 150.862 100.691Z" fill="#292939"/>
        <path d="M170.862 145.46H167.339L165.663 131.914L170.863 131.914L170.862 145.46Z" fill="#FEB1AF"/>
        <path d="M164.823 144.457H171.617V148.722H160.545C160.545 148.162 160.656 147.607 160.871 147.09C161.086 146.572 161.401 146.102 161.798 145.706C162.195 145.31 162.667 144.996 163.186 144.782C163.705 144.567 164.261 144.457 164.823 144.457Z" fill="#2A2939"/>
        <path d="M188.391 145.46H184.868L183.191 131.914L188.391 131.914L188.391 145.46Z" fill="#FEB1AF"/>
        <path d="M182.351 144.457H189.145V148.722H178.073C178.073 148.162 178.184 147.607 178.399 147.09C178.614 146.572 178.929 146.102 179.326 145.706C179.723 145.31 180.195 144.996 180.714 144.782C181.233 144.567 181.789 144.457 182.351 144.457Z" fill="#2A2939"/>
        <path d="M153.189 97.0157C152.936 96.6434 152.767 96.2203 152.695 95.7761C152.624 95.3319 152.651 94.8775 152.774 94.4448C152.898 94.0121 153.115 93.6117 153.411 93.2717C153.706 92.9318 154.073 92.6606 154.485 92.4772L166.461 59.5723L172.354 62.7782L158.68 94.2233C158.943 94.9339 158.936 95.716 158.659 96.4215C158.382 97.1269 157.855 97.7066 157.179 98.0508C156.502 98.395 155.722 98.4798 154.987 98.289C154.251 98.0982 153.612 97.6451 153.189 97.0157Z" fill="#FEB1AF"/>
        <path d="M186.591 103.199C186.2 102.976 185.862 102.669 185.602 102.301C185.343 101.933 185.167 101.513 185.088 101.07C185.008 100.627 185.027 100.172 185.144 99.7377C185.26 99.3029 185.47 98.8989 185.76 98.5539L182.05 63.7461L188.756 64.0515L190.298 98.2896C190.847 98.8132 191.184 99.5195 191.246 100.274C191.307 101.029 191.089 101.781 190.632 102.386C190.175 102.991 189.511 103.408 188.767 103.558C188.022 103.708 187.248 103.58 186.591 103.199Z" fill="#FEB1AF"/>
        <path d="M175.893 53.4779C179.791 53.4779 182.95 50.3278 182.95 46.4421C182.95 42.5563 179.791 39.4062 175.893 39.4062C171.995 39.4062 168.835 42.5563 168.835 46.4421C168.835 50.3278 171.995 53.4779 175.893 53.4779Z" fill="#FEB1AF"/>
        <path d="M186.545 95.2826H165.268L165.293 95.1175C165.331 94.8708 169.085 70.356 166.317 62.3359C166.039 61.5478 166.063 60.685 166.385 59.9138C166.707 59.1425 167.304 58.5172 168.061 58.1583C172.018 56.3005 179.615 54.0128 186.026 59.5646C186.97 60.395 187.707 61.4328 188.178 62.596C188.65 63.7592 188.844 65.0159 188.745 66.2667L186.545 95.2826Z" fill="#6B60A5"/>
        <path d="M169.355 73.9786L159.775 72.0412L164.266 61.4336C164.534 60.4062 165.201 59.527 166.119 58.9888C167.037 58.4506 168.132 58.2974 169.163 58.5628C170.194 58.8282 171.078 59.4906 171.62 60.4045C172.162 61.3185 172.318 62.4094 172.055 63.4381L169.355 73.9786Z" fill="#6B60A5"/>
        <path d="M181.624 77.5763L181.048 64.4158C180.611 61.9419 182.032 59.6032 184.216 59.2209C186.402 58.84 188.536 60.5559 188.975 63.048L191.139 75.3452L181.624 77.5763Z" fill="#6B60A5"/>
        <path d="M185.838 93.707C189.262 106.706 189.635 123.233 188.712 141.26L184.114 140.687L175.781 106.311L171.183 141.26L166.011 140.973C164.465 122.058 162.961 105.82 165.436 95.1393L185.838 93.707Z" fill="#1F2125"/>
        <path d="M176.861 50.0957C180.358 50.0957 183.193 47.2421 183.193 43.7221C183.193 40.2022 180.358 37.3486 176.861 37.3486C173.363 37.3486 170.528 40.2022 170.528 43.7221C170.528 47.2421 173.363 50.0957 176.861 50.0957Z" fill="#FEB1AF"/>
        <path d="M185.315 52.2301C185.375 52.3315 185.411 52.445 185.421 52.5624C185.431 52.6797 185.414 52.7978 185.373 52.9079C185.331 53.018 185.265 53.1171 185.18 53.1981C185.095 53.279 184.993 53.3396 184.882 53.3753C184.032 53.6589 183.509 54.486 182.898 55.1478C182.29 55.8074 181.31 56.3552 180.533 55.9062C179.758 55.4593 179.705 54.3185 179.056 53.6997C178.424 53.0981 177.374 53.1712 176.631 53.6288L176.609 53.6425C176.481 53.7267 176.331 53.7712 176.178 53.7705C176.025 53.7698 175.875 53.7239 175.748 53.6386C175.62 53.5533 175.52 53.4323 175.46 53.2904C175.401 53.1486 175.383 52.9923 175.411 52.8407C175.671 51.4475 175.931 50.0544 176.191 48.6615C175.508 50.3181 174.516 51.8277 173.269 53.1089C172.925 53.5079 172.49 53.8162 172.001 54.0069C171.557 54.1487 171.126 53.6868 170.695 53.7706C171.766 52.8274 175.37 46.7816 174.725 42.7403C173.967 42.8262 173.209 42.9121 172.451 42.9981C172.369 42.6371 172.194 42.3044 171.943 42.0334C171.974 42.3847 171.93 42.7385 171.813 43.0711C171.497 43.1077 171.179 43.142 170.863 43.1786C170.424 43.228 169.945 43.2709 169.568 43.0389C168.938 42.6522 168.919 41.7369 169.098 41.015C169.623 38.916 171.215 37.1606 173.164 36.2411C175.113 35.3237 175.69 37.3669 177.743 36.7138C181.799 35.4247 184.907 37.629 186.002 41.7197C186.922 45.1509 186.254 48.7926 185.315 52.2301Z" fill="#111111"/>
        <path d="M241.374 148.858H29.221C29.1305 148.858 29.0437 148.822 28.9797 148.758C28.9158 148.694 28.8799 148.607 28.8799 148.517C28.8799 148.427 28.9158 148.34 28.9797 148.276C29.0437 148.212 29.1305 148.176 29.221 148.176H241.374C241.465 148.176 241.552 148.212 241.616 148.276C241.68 148.34 241.716 148.427 241.716 148.517C241.716 148.607 241.68 148.694 241.616 148.758C241.552 148.822 241.465 148.858 241.374 148.858Z" fill="#E2E2E2"/>
        <path d="M134.77 117.593H97.4137C96.9217 117.596 96.4488 117.404 96.0986 117.059C95.7485 116.715 95.5497 116.246 95.5459 115.755V32.6327C95.5497 32.1423 95.7485 31.6733 96.0986 31.3288C96.4488 30.9843 96.9217 30.7923 97.4137 30.7949H134.77C135.262 30.7923 135.735 30.9843 136.085 31.3288C136.435 31.6733 136.634 32.1423 136.638 32.6327V115.755C136.634 116.246 136.435 116.715 136.085 117.059C135.735 117.404 135.262 117.596 134.77 117.593Z" fill="white"/>
        <path d="M136.638 57.6904H95.5459V58.2634H136.638V57.6904Z" fill="#BFBFBF"/>
        <path d="M136.781 90.3789H95.6895V90.9518H136.781V90.3789Z" fill="#BFBFBF"/>
        <path d="M109.051 30.7949H108.477V117.879H109.051V30.7949Z" fill="#BFBFBF"/>
        <path d="M123.419 30.7949H122.845V117.879H123.419V30.7949Z" fill="#BFBFBF"/>
    </g>
    <defs>
        <clipPath id="clip0_7147_1685">
            <rect width="250" height="149" fill="white"/>
        </clipPath>
    </defs>
</svg>
