<svg width="162" height="161" viewBox="0 0 162 161" fill="none" xmlns="http://www.w3.org/2000/svg">
<path d="M81.0433 160.698C125.419 160.698 161.392 124.724 161.392 80.3489C161.392 35.9734 125.419 0 81.0433 0C36.6678 0 0.694336 35.9734 0.694336 80.3489C0.694336 124.724 36.6678 160.698 81.0433 160.698Z" fill="#9C92CE" fill-opacity="0.1"/>
<path d="M153.978 129.817C155.055 128.739 155.055 126.992 153.978 125.914C152.9 124.836 151.153 124.836 150.075 125.914C148.998 126.992 148.998 128.739 150.075 129.817C151.153 130.894 152.9 130.894 153.978 129.817Z" fill="#C4C1D1"/>
<path d="M29.4938 14.7361C31.0367 13.1932 31.0367 10.6916 29.4938 9.14871C27.9509 7.60581 25.4494 7.60581 23.9065 9.14871C22.3636 10.6916 22.3636 13.1932 23.9065 14.7361C25.4494 16.279 27.9509 16.279 29.4938 14.7361Z" fill="#9691AF"/>
<path d="M51.4032 157.421C53.065 155.759 53.065 153.065 51.4032 151.403C49.7413 149.741 47.0469 149.741 45.385 151.403C43.7232 153.065 43.7232 155.759 45.385 157.421C47.0469 159.083 49.7413 159.083 51.4032 157.421Z" fill="#E4E4E4"/>
<path d="M98.8995 112.872C107.537 114.313 113.226 116.774 113.226 119.564C113.226 124.008 98.8205 127.606 81.0476 127.606C63.2747 127.606 48.8691 124.008 48.8691 119.564C48.8691 116.774 54.5584 114.319 63.1957 112.872" fill="white"/>
<path d="M105.244 93.5064L81.0521 120.768L56.8605 93.5064C50.7944 86.6683 47.4209 77.6786 47.4209 68.3423C47.4209 48.8796 62.4768 33.1064 81.0521 33.1064C99.6273 33.1064 114.683 48.8796 114.683 68.3423C114.683 77.6786 111.31 86.6683 105.244 93.5064Z" fill="#998FCF"/>
<path d="M81.0444 121.668C80.783 121.668 80.5338 121.559 80.3636 121.364L56.172 94.1031C53.0782 90.6142 50.6651 86.6025 49.0057 82.1715C47.3464 77.7465 46.5015 73.0905 46.5015 68.3312C46.5015 63.4564 47.4132 58.7275 49.2124 54.2721C50.9508 49.9687 53.4368 46.1029 56.6036 42.7841C59.7765 39.4593 63.4721 36.8517 67.5871 35.0282C71.8479 33.1379 76.3823 32.1836 81.0505 32.1836C85.7186 32.1836 90.2469 33.144 94.5139 35.0282C98.6289 36.8517 102.324 39.4593 105.497 42.7841C108.664 46.1029 111.156 49.9687 112.889 54.2721C114.688 58.7275 115.599 63.4564 115.599 68.3312C115.599 73.0905 114.755 77.7465 113.095 82.1715C111.436 86.6025 109.023 90.6142 105.929 94.1031L81.7373 121.364C81.555 121.559 81.3058 121.668 81.0444 121.668ZM81.0444 34.0071C63.004 34.0071 48.325 49.4034 48.325 68.3312C48.325 77.4729 51.5951 86.1953 57.5396 92.8935L81.0505 119.383L104.561 92.8935C110.5 86.2014 113.776 77.479 113.776 68.3312C113.764 49.4095 99.0848 34.0071 81.0444 34.0071Z" fill="#221C43"/>
<path d="M81.0501 88.5298C92.0306 88.5298 100.932 79.6283 100.932 68.6477C100.932 57.6671 92.0306 48.7656 81.0501 48.7656C70.0695 48.7656 61.168 57.6671 61.168 68.6477C61.168 79.6283 70.0695 88.5298 81.0501 88.5298Z" fill="#48406F"/>
<path d="M81.0451 83.6751C89.3434 83.6751 96.0706 76.9479 96.0706 68.6496C96.0706 60.3512 89.3434 53.624 81.0451 53.624C72.7467 53.624 66.0195 60.3512 66.0195 68.6496C66.0195 76.9479 72.7467 83.6751 81.0451 83.6751Z" fill="white"/>
<path d="M81.0379 84.5845C76.7831 84.5845 72.7775 82.9251 69.7687 79.9164C66.76 76.9076 65.1006 72.902 65.1006 68.6472C65.1006 64.3924 66.76 60.3868 69.7687 57.3781C72.7775 54.3693 76.7831 52.71 81.0379 52.71C85.2927 52.71 89.2983 54.3693 92.307 57.3781C95.3158 60.3868 96.9751 64.3924 96.9751 68.6472C96.9751 72.902 95.3158 76.9076 92.307 79.9164C89.2983 82.9312 85.2927 84.5845 81.0379 84.5845ZM81.0379 54.5395C73.2576 54.5395 66.9241 60.8731 66.9241 68.6533C66.9241 76.4335 73.2576 82.7671 81.0379 82.7671C88.8181 82.7671 95.1516 76.4335 95.1516 68.6533C95.1516 60.8731 88.8181 54.5395 81.0379 54.5395Z" fill="#27204B"/>
<path d="M81.041 128.514C72.5071 128.514 64.4716 127.681 58.4176 126.168C55.421 125.42 53.0566 124.539 51.385 123.554C49.4339 122.405 48.4492 121.098 48.4492 119.688C48.4492 115.336 57.7612 113.13 63.3167 112.2C63.8151 112.115 64.2832 112.455 64.3683 112.947C64.4533 113.446 64.113 113.914 63.6206 113.999C59.4448 114.698 55.9863 115.64 53.6097 116.728C51.4944 117.695 50.2788 118.776 50.2788 119.688C50.2788 120.928 52.5338 122.819 58.8674 124.405C64.7816 125.882 72.659 126.696 81.0532 126.696C89.4473 126.696 97.3247 125.882 103.239 124.405C109.572 122.825 111.828 120.934 111.828 119.688C111.828 118.77 110.612 117.695 108.497 116.728C106.12 115.64 102.655 114.698 98.4857 113.999C97.9873 113.914 97.653 113.446 97.7381 112.947C97.8232 112.449 98.2912 112.115 98.7896 112.2C104.339 113.13 113.657 115.336 113.657 119.688C113.657 121.104 112.666 122.405 110.721 123.554C109.05 124.539 106.685 125.42 103.689 126.168C97.6104 127.681 89.5749 128.514 81.041 128.514Z" fill="#221C43"/>
</svg>
