<svg width="105" height="105" viewBox="0 0 105 105" fill="none" xmlns="http://www.w3.org/2000/svg">
<g clip-path="url(#clip0_7283_13826)">
<path d="M101.825 26.6294C99.0691 16.4842 88.5179 5.93086 78.3706 3.17461C72.1485 1.62422 63.8142 0.0266602 52.5 0C41.1858 0.0266602 32.8515 1.62422 26.6294 3.17461C16.4842 5.93086 5.93086 16.4821 3.17461 26.6294C1.62422 32.8515 0.0266602 41.1858 0 52.5C0.0266602 63.8142 1.62422 72.1485 3.17461 78.3706C5.93086 88.5179 16.4842 99.0691 26.6294 101.825C32.8515 103.376 41.1899 104.973 52.5 105C63.8121 104.973 72.1485 103.376 78.3706 101.825C88.5179 99.0691 99.0691 88.5179 101.825 78.3706C103.376 72.1485 104.973 63.8101 105 52.5C104.973 41.1858 103.376 32.8515 101.825 26.6294Z" fill="#FBF7FF"/>
<path d="M78.707 50.6282L73.4106 45.3318C72.9779 44.911 72.3969 44.6774 71.7933 44.6817C71.1898 44.6859 70.6121 44.9277 70.1854 45.3545C69.7586 45.7814 69.5171 46.3591 69.513 46.9627C69.509 47.5663 69.7427 48.1472 70.1636 48.5798L73.0121 51.4282H62.0032C61.6961 51.4193 61.3903 51.472 61.104 51.5833C60.8176 51.6947 60.5565 51.8623 60.3361 52.0764C60.1158 52.2904 59.9406 52.5465 59.8209 52.8295C59.7013 53.1125 59.6396 53.4166 59.6396 53.7238C59.6396 54.031 59.7013 54.3351 59.8209 54.6181C59.9406 54.901 60.1158 55.1571 60.3361 55.3712C60.5565 55.5852 60.8176 55.7529 61.104 55.8642C61.3903 55.9755 61.6961 56.0283 62.0032 56.0193H73.1146L70.2662 58.8688C70.053 59.082 69.8839 59.3351 69.7685 59.6136C69.6531 59.8922 69.5937 60.1907 69.5937 60.4923C69.5937 60.7938 69.6531 61.0923 69.7685 61.3709C69.8839 61.6494 70.053 61.9026 70.2662 62.1158C70.6968 62.5463 71.2808 62.7882 71.8897 62.7882C72.1912 62.7882 72.4898 62.7288 72.7683 62.6135C73.0469 62.4981 73.3 62.329 73.5132 62.1158L78.707 56.9219C79.1204 56.5086 79.4484 56.0178 79.6721 55.4777C79.8958 54.9376 80.011 54.3587 80.011 53.7741C80.011 53.1895 79.8958 52.6106 79.6721 52.0705C79.4484 51.5304 79.1204 51.0396 78.707 50.6262V50.6282Z" fill="#6B60A5"/>
<path d="M66.0233 58.9624C65.4391 58.9724 64.8792 59.1981 64.4514 59.5961C64.0236 59.9941 63.7582 60.5363 63.7062 61.1183C63.6212 62.2368 63.5362 62.6128 63.4307 63.4461C63.2776 64.5616 62.7629 65.5962 61.9655 66.3912C61.1692 67.1993 60.1318 67.7266 59.0096 67.8936L58.9432 67.9024C58.2594 68.0001 57.6245 68.086 56.9631 68.1642C57.0921 65.5971 57.1741 62.6294 57.1946 59.6843C57.2318 54.8138 57.097 49.789 56.8303 46.5459C56.6306 44.2781 55.9574 42.0775 54.8542 40.0861C53.763 38.1246 52.3447 36.5832 50.8579 35.7675L50.812 35.7431C49.5158 35.0339 48.4178 34.4331 46.5227 33.6341C47.3296 33.6077 48.115 33.5911 49.1602 33.5911C54.311 33.6116 56.1338 33.9213 58.6667 34.3032L58.7292 34.313C59.8451 34.5033 60.8701 35.0475 61.6529 35.8652C62.4481 36.6758 62.967 37.7167 63.1357 38.8396C63.4063 40.8021 63.6242 43.04 63.7551 46.2704C63.8029 47.4876 64.8296 48.481 66.078 48.5103C67.3615 48.5396 68.3784 47.5637 68.3198 46.3407C68.1694 43.1641 67.9203 40.8119 67.595 38.6882C67.2756 36.6105 66.2157 34.5758 64.6547 32.9503C63.0937 31.3249 61.1078 30.1966 59.0389 29.8342L58.9754 29.8235C56.4493 29.4034 54.4624 29.0274 49.168 29C43.8746 29.0313 42.0127 29.4015 39.4827 29.8196L39.4192 29.8313C37.3503 30.1927 35.3595 31.3239 33.7966 32.9464C32.2336 34.5689 31.1757 36.6066 30.8563 38.6843C30.3825 41.7428 30.0397 46.5312 30.0035 51.2093C29.9674 55.8873 30.2116 60.6699 30.6365 63.7186C30.8258 65.0174 31.2775 66.2641 31.964 67.3827C32.1545 67.7735 32.3596 68.1642 32.5794 68.5373C33.7194 70.4822 35.1837 72.0598 36.6919 72.9448L36.7378 72.9722C38.5762 74.0467 40.0336 74.9151 43.8325 76.5376C47.6207 78.1396 49.0098 78.462 50.7808 78.882L50.8247 78.8927C52.2724 79.2298 53.639 78.7648 54.6979 77.6072C55.7235 76.4858 56.4161 74.7666 56.6418 72.7631C57.5707 72.6527 58.4001 72.5277 59.2978 72.388L59.3622 72.3773C61.4712 72.0481 63.4913 70.9589 65.0582 69.3735C66.625 67.7881 67.6643 65.7797 67.9506 63.7079C68.0736 62.8111 68.1694 62.3706 68.2651 61.2189C68.3696 59.9656 67.34 58.936 66.0233 58.9624Z" fill="#6B60A5"/>
</g>
<defs>
<clipPath id="clip0_7283_13826">
<rect width="105" height="105" fill="white"/>
</clipPath>
</defs>
</svg>
