<svg width="198" height="149" viewBox="0 0 198 149" fill="none" xmlns="http://www.w3.org/2000/svg">
<g clip-path="url(#clip0_7283_12932)">
<path d="M129.086 61.1422C128.653 61.2043 128.212 61.1713 127.794 61.0455C127.375 60.9197 126.99 60.7042 126.664 60.4141C126.338 60.1239 126.08 59.7663 125.909 59.3663C125.737 58.9663 125.655 58.5336 125.669 58.0988L115.751 54.3049L120.242 51.1074L128.972 55.2004C129.704 55.2727 130.385 55.61 130.884 56.1483C131.383 56.6866 131.667 57.3886 131.681 58.1211C131.695 58.8536 131.438 59.5658 130.96 60.1226C130.482 60.6795 129.815 61.0423 129.085 61.1423L129.086 61.1422Z" fill="#FFB7B7"/>
<path d="M123.418 58.4206L124.967 52.9833L124.891 52.9316L110.385 43.1233L97.8455 30.5996L90.541 33.5045L91.0207 35.8057L91.052 35.834L107.724 50.6977L107.739 50.7051L123.418 58.4206Z" fill="#6B60A5"/>
<path d="M108.557 70.8399L86.1074 67.7076L88.0835 53.9961H104.611L108.557 70.8399Z" fill="#FFB6B6"/>
<path d="M70.4121 137.981L75.0174 139.046L81.3364 121.873L74.5399 120.301L70.4121 137.981Z" fill="#FFB6B6"/>
<path d="M66.127 145.361L69.4294 146.125L70.7435 143.158L71.5287 146.611L80.2878 148.637C80.7076 148.734 81.1477 148.695 81.5437 148.525C81.9397 148.356 82.2709 148.065 82.489 147.695C82.7071 147.325 82.8006 146.895 82.756 146.468C82.7113 146.042 82.5307 145.64 82.2407 145.323L76.3686 138.896L77.1011 135.759L69.6418 134.494L66.127 145.361Z" fill="#222427"/>
<path d="M98.8271 140.536H103.555L105.805 122.385H98.8271V140.536Z" fill="#FFB6B6"/>
<path d="M96.332 148.69H99.7225L100.328 145.504L101.878 148.69H110.87C111.301 148.69 111.721 148.553 112.068 148.298C112.415 148.044 112.672 147.686 112.8 147.277C112.928 146.867 112.922 146.427 112.781 146.022C112.641 145.616 112.374 145.266 112.019 145.022L104.838 140.085V136.864L97.2844 137.313L96.332 148.69Z" fill="#222427"/>
<path d="M85.8236 65.3809L107.778 63.6426C114.257 78.7065 110.138 102.754 105.159 129.825L98.0973 130.734L97.5495 87.2341L79.8472 127.702L72.4873 127.327L85.8236 65.3809Z" fill="#1F2125"/>
<path d="M98.6037 25.7133V18.32C98.6044 17.0186 98.3474 15.7298 97.8475 14.5273C97.3476 13.3248 96.6146 12.2321 95.6904 11.3116C94.7661 10.3911 93.6687 9.66097 92.4608 9.16279C91.2529 8.66462 89.9583 8.4082 88.6508 8.4082C87.3434 8.4082 86.0487 8.66462 84.8409 9.16279C83.633 9.66097 82.5356 10.3911 81.6113 11.3116C80.687 12.2321 79.954 13.3248 79.4541 14.5273C78.9542 15.7298 78.6973 17.0186 78.6979 18.32C76.9437 21.9585 78.0412 23.6884 78.6979 25.7133C78.6985 26.0659 78.8395 26.4039 79.09 26.6532C79.3405 26.9025 79.6801 27.0428 80.0343 27.0434H97.2667C97.6211 27.043 97.9608 26.9028 98.2114 26.6534C98.4621 26.4041 98.6031 26.066 98.6037 25.7133Z" fill="#1F2125"/>
<path d="M91.1068 26.9321C95.1369 26.9321 98.404 23.6802 98.404 19.6687C98.404 15.6572 95.1369 12.4053 91.1068 12.4053C87.0766 12.4053 83.8096 15.6572 83.8096 19.6687C83.8096 23.6802 87.0766 26.9321 91.1068 26.9321Z" fill="#FFB7B7"/>
<path d="M100.958 18.9119C100.956 16.8342 100.126 14.8422 98.6498 13.3731C97.1738 11.9039 95.1726 11.0775 93.0853 11.0752H91.5997C89.5123 11.0775 87.5111 11.9039 86.0351 13.3731C84.5592 14.8422 83.7289 16.8342 83.7266 18.9119V19.0598C84.8392 19.8169 85.8954 19.9276 86.8661 19.0598L87.9367 16.0754L88.1509 19.0598H89.7736L90.3145 17.5541L90.4227 19.0598C92.6145 20.9177 96.759 20.0274 100.958 19.0598L100.958 18.9119Z" fill="#1F2125"/>
<path d="M86.8521 58.0038L105.431 57.3001L106.47 45.2018C107.271 42.9873 107.284 41.0845 106.508 39.5504C105.841 38.2894 104.721 37.3254 103.371 36.8511L99.3054 31.9636C98.7824 31.3355 98.1258 30.8308 97.3829 30.486C96.64 30.1413 95.8295 29.9651 95.0099 29.9703L84.4463 30.0422C84.1917 29.8898 82.6473 29.1085 79.6013 30.4222C76.2976 31.8474 77.0648 36.7988 77.073 36.8486L77.0807 36.8951L77.117 36.9268L84.1431 42.8176L86.8521 58.0038Z" fill="#6B60A5"/>
<path d="M0.311718 148.999H186.862C186.944 148.999 187.024 148.967 187.082 148.909C187.141 148.85 187.173 148.771 187.173 148.689C187.173 148.607 187.141 148.528 187.082 148.47C187.024 148.412 186.944 148.379 186.862 148.379H0.311718C0.229046 148.379 0.149761 148.412 0.0913025 148.47C0.0328444 148.528 0 148.607 0 148.689C0 148.771 0.0328444 148.85 0.0913025 148.909C0.149761 148.967 0.229046 148.999 0.311718 148.999Z" fill="#E2E2E2"/>
<path d="M136.141 75.5642C136.127 82.6123 133.465 89.4002 128.678 94.5935C123.891 99.7868 117.326 103.01 110.272 103.629C103.219 104.248 96.1878 102.219 90.5615 97.9396C84.9352 93.6604 81.1206 87.441 79.8676 80.5042C78.6146 73.5674 80.0139 66.415 83.7903 60.453C87.5667 54.4911 93.4472 50.1509 100.276 48.2857C107.104 46.4206 114.386 47.1654 120.691 50.3738C126.995 53.5821 131.866 59.0219 134.346 65.6237C134.408 65.7894 134.468 65.9552 134.527 66.1226V66.1242C134.788 66.8599 135.019 67.6093 135.218 68.3725C135.833 70.7207 136.143 73.1376 136.141 75.5642Z" fill="#EBEBEB"/>
<path d="M104.466 56.39C103.183 55.6994 101.759 55.3095 100.301 55.2502C98.8437 55.1908 97.3918 55.4635 96.0563 56.0476C94.8804 56.5569 93.6423 57.4707 93.25 59.1208C94.8365 58.1888 96.8902 59.6613 97.2984 62.0235L97.2032 62.0497C96.9875 63.6858 97.4689 65.4671 98.4008 66.4817C98.4701 66.0239 98.6409 65.5872 98.9009 65.2034C99.161 64.8196 99.5036 64.4982 99.904 64.2626C100.589 63.8146 101.346 63.4892 101.869 62.7191C102.488 61.8061 102.646 60.4718 102.892 59.2547C103.138 58.0375 103.605 56.7292 104.466 56.39Z" fill="#B1B1B1"/>
<path d="M95.5854 70.313C95.146 70.9699 94.5591 71.382 94.0325 71.8951C93.4245 72.4455 93.0257 73.1877 92.9031 73.9966C92.8365 74.5681 92.9396 75.1491 92.9253 75.727C92.911 76.3049 92.7175 76.9554 92.3225 77.099C91.6991 77.3232 91.2233 76.1707 90.5825 76.0901C90.0733 76.027 89.6149 76.8243 89.7624 77.5159C89.9099 78.2074 90.6031 78.5137 91.0012 78.0621C91.3613 78.6637 91.1075 79.7547 90.5666 79.9394C90.5095 80.3183 90.4524 80.6957 90.3969 81.0746C89.0296 80.1226 87.648 79.1547 86.4853 77.7606C85.1922 76.2232 84.3901 74.3362 84.1821 72.3419C84.0314 70.7393 84.2551 68.9063 83.5159 67.6732C82.9242 66.6864 81.909 66.4685 80.9954 66.5301C80.8288 66.5411 80.6607 66.5601 80.4941 66.5806C81.033 64.9698 81.7173 63.4108 82.5388 61.9229C82.7247 61.8435 82.8974 61.7365 83.0511 61.6055C83.9013 60.8872 84.2788 59.433 84.9688 58.4273C85.0133 58.3625 85.0593 58.2994 85.1068 58.2378C85.8127 57.3205 86.7581 56.8484 87.6717 56.4095C89.6942 55.4321 91.7753 54.4422 93.9103 54.578L93.3028 54.6364C92.5938 56.6131 91.8842 58.5899 91.1741 60.5666C91.0662 60.8698 90.9573 61.1734 90.8473 61.4777C90.4444 62.6018 90.0288 63.7986 90.0907 65.057C90.1272 65.8022 90.3873 66.5979 90.8822 66.8537C91.3438 67.0905 91.8482 66.8 92.2939 66.5127C92.4827 66.3927 92.6699 66.2727 92.8586 66.1511C93.536 65.7169 94.2862 65.2717 95.0016 65.5622C95.6567 65.8274 96.1405 66.7132 96.2325 67.6684C96.3169 68.597 96.0893 69.5271 95.5854 70.313Z" fill="#B1B1B1"/>
<path d="M99.6135 83.8081C97.6353 82.5957 95.6571 81.3834 93.679 80.171L93.7125 80.085C92.4826 80.5512 91.972 82.7274 92.1752 84.507C92.3785 86.2866 93.0677 87.8775 93.4159 89.6115C93.8854 91.9845 93.7082 94.4393 92.9027 96.7211C95.5039 93.8159 97.8059 90.6585 99.7742 87.2962C100.049 86.8725 100.259 86.41 100.396 85.9244C100.541 85.4068 100.489 84.8541 100.25 84.3721C100.089 84.1343 99.8696 83.9405 99.6135 83.8081Z" fill="#B1B1B1"/>
<path d="M91.8061 61.7527C91.5738 62.2491 91.538 62.8145 91.7058 63.336C91.901 63.7562 92.2551 64.0826 92.6909 64.2442L93.7839 64.7835C94.1476 64.9629 94.5395 65.1441 94.9102 64.9965C95.3573 64.8184 95.6673 64.1207 95.5871 63.473C95.5018 62.7838 95.0653 62.3097 94.6616 61.9059C94.0967 61.3409 93.5318 60.7759 92.9669 60.2109L92.6485 60.5991C92.3041 60.9334 92.0193 61.3235 91.8061 61.7527Z" fill="#B1B1B1"/>
<path d="M130.282 69.1208C130.774 69.236 131.265 69.3513 131.757 69.4665C131.671 71.1196 130.848 72.6496 129.744 73.2037C129.284 73.4343 128.772 73.5195 128.391 73.9506C128.047 74.3421 127.872 74.9515 127.712 75.5341C127.431 76.5509 127.151 77.5677 126.87 78.5845C126.568 79.6803 126.181 80.8976 125.398 81.2923C124.725 81.6317 123.956 81.2165 123.439 80.5202C122.922 79.824 122.606 78.8877 122.3 77.9751C122.319 78.9698 121.854 79.9455 121.196 80.2913C120.536 80.637 119.733 80.3244 119.293 79.5524C118.975 78.9982 118.844 78.2672 118.533 77.7051C118.222 77.143 117.57 76.8209 117.23 77.3483C117.007 77.6988 117.035 78.2356 116.924 78.6808C116.868 78.9764 116.721 79.2474 116.504 79.4559C116.286 79.6645 116.008 79.8003 115.709 79.8445C115.434 79.8382 115.164 79.7763 114.914 79.6626C114.664 79.5489 114.439 79.3856 114.255 79.1829C113.283 78.1939 112.651 76.9245 112.448 75.5563C112.31 74.9002 112.328 74.2214 112.499 73.5732C112.694 72.959 113.165 72.4854 113.633 72.6022C113.941 71.9548 113.333 71.0959 112.786 71.1717C112.237 71.2475 111.807 71.8333 111.357 72.2833C110.908 72.7332 110.28 73.0601 109.828 72.6132C109.838 72.7767 109.782 72.9374 109.673 73.0601C109.564 73.1828 109.411 73.2573 109.247 73.2674C109.23 73.2684 109.214 73.2688 109.198 73.2685C108.897 73.1826 108.618 73.0352 108.378 72.8359C107.342 72.1933 106.027 72.6196 105.291 73.8353C105.751 71.8869 106.425 69.6513 107.838 69.1934C108.416 69.0055 109.046 69.1602 109.591 68.835C110.557 68.2587 110.752 66.0814 109.918 65.1831C110.024 66.0325 110.004 67.024 109.553 67.6051C109.103 68.1861 108.157 67.8071 108.214 66.9482C108.202 67.0691 108.151 67.1827 108.069 67.273C107.987 67.3632 107.879 67.4254 107.76 67.4506C107.64 67.4759 107.516 67.4629 107.404 67.4135C107.293 67.364 107.2 67.2808 107.139 67.1756C106.839 66.7209 106.865 65.9773 107.077 65.4341C107.296 64.9422 107.61 64.498 108.002 64.1268C108.755 63.3232 109.52 62.5101 110.392 62.0048C111.266 61.4996 112.275 61.3291 113.151 61.8311C113.612 62.0964 114.018 62.5385 114.49 62.7721C114.6 62.8405 114.723 62.8865 114.852 62.9075C114.98 62.9285 115.112 62.9241 115.239 62.8945C115.366 62.865 115.485 62.8108 115.591 62.7352C115.697 62.6595 115.787 62.5639 115.856 62.4537C115.861 62.4452 115.866 62.4366 115.871 62.4279C116.222 61.8153 116.057 60.9059 116.187 60.1402C116.42 58.7871 117.779 58.1539 118.533 59.0476C117.97 58.9039 117.388 59.567 117.318 60.3707C117.246 61.1743 117.654 61.9859 118.2 62.229C119.116 62.6332 120.014 61.6164 120.707 60.6754C121.431 59.6902 122.155 58.7055 122.881 57.7213C122.996 57.5538 123.126 57.3964 123.269 57.2508C123.496 57.0304 123.799 56.9042 124.116 56.8977C124.434 56.8913 124.741 57.0051 124.978 57.2161C125.71 57.8113 126.055 59.0318 126.656 59.8717C127.528 61.0922 128.834 61.389 130.049 61.6259C130.954 61.8011 131.861 61.9774 132.767 62.1548C133.372 63.2741 133.899 64.4331 134.346 65.6236C132.683 66.3783 131.272 67.5921 130.282 69.1208Z" fill="#B1B1B1"/>
<path d="M135.218 68.3723C135.033 68.9176 134.931 69.4877 134.917 70.0633C134.14 69.1191 134.016 67.3492 134.527 66.124C134.789 66.8598 135.019 67.6092 135.218 68.3723Z" fill="#E1DFED"/>
<path d="M133.21 88.1183C132.53 89.4918 131.74 90.8082 130.847 92.0544C130.275 91.8113 129.662 92.2455 129.127 92.6528C128.569 93.0791 127.898 93.4944 127.325 93.1059C126.74 92.7081 126.551 91.595 126.737 90.7124C126.95 89.8982 127.323 89.1341 127.834 88.4641C128.31 87.7567 128.819 87.0225 129.481 86.7478C130.144 86.4731 130.996 86.8615 131.189 87.7994L131.659 87.7836C131.395 87.4236 131.533 86.6784 131.887 86.5473C132.295 86.3942 132.648 86.9515 132.89 87.4441C132.997 87.6667 133.107 87.891 133.21 88.1183Z" fill="#B1B1B1"/>
<path d="M115.228 81.449C114.219 81.5122 113.42 80.2755 112.888 79.059C112.357 77.8424 111.873 76.4512 110.962 75.8319C110.442 75.4781 109.848 75.4296 109.284 75.2581C108.964 75.1776 108.668 75.0224 108.42 74.8052C108.172 74.588 107.98 74.3152 107.859 74.0094L107.219 73.752C106.323 74.1975 105.503 74.7795 104.788 75.477C103.971 76.3409 103.462 77.4484 103.34 78.6286C103.218 79.9041 103.669 81.3263 104.513 81.8054C105.18 82.184 105.956 81.9454 106.631 82.292C107.475 82.725 107.976 83.9829 108.166 85.2249C108.355 86.467 108.307 87.7577 108.443 89.0138C108.579 90.2699 108.953 91.577 109.726 92.2207C110.695 93.0262 112.116 92.3568 112.55 90.8905C112.763 90.1712 112.756 89.3596 112.915 88.613C113.196 87.2982 113.953 86.3227 114.554 85.2441C115.155 84.1655 115.628 82.7007 115.228 81.449Z" fill="#B1B1B1"/>
<path d="M105.256 68.5285C105.35 68.6147 105.438 68.7075 105.519 68.8062C105.602 68.9498 105.645 69.1135 105.642 69.2795C105.639 69.4455 105.591 69.6076 105.502 69.7484C105.624 69.7415 105.743 69.7096 105.851 69.6546C105.96 69.5997 106.056 69.523 106.133 69.4293C106.317 69.2205 106.479 68.9933 106.617 68.7514C106.681 68.6685 106.727 68.5729 106.752 68.471C106.776 68.369 106.779 68.263 106.759 68.16C106.711 68.0246 106.599 67.9668 106.52 67.8649C106.41 67.6658 106.335 67.4496 106.298 67.2255C106.255 67.0155 106.153 66.8218 106.005 66.6662C105.856 66.5106 105.667 66.3993 105.459 66.3447L105.509 66.3544C105.423 66.4052 105.355 66.4816 105.315 66.5728C105.275 66.664 105.264 66.7655 105.285 66.863C105.315 67.06 105.443 67.2236 105.43 67.4246C105.412 67.7135 105.122 67.8491 105.104 68.1381C105.101 68.2831 105.155 68.4233 105.256 68.5285Z" fill="#B1B1B1"/>
<path d="M103.527 63.6185L103.532 63.6177C103.563 63.5895 103.592 63.559 103.618 63.5264L103.527 63.6185Z" fill="#6B60A5"/>
<path d="M103.829 64.9746C103.95 64.8688 104.04 64.7318 104.088 64.5786C104.137 64.4255 104.142 64.2621 104.103 64.1062C104.03 63.7777 103.77 63.5568 103.531 63.6175C103.461 63.6875 103.375 63.7389 103.28 63.7667C103.186 63.7945 103.085 63.7978 102.989 63.7764C102.841 63.7384 102.678 63.6408 102.55 63.7518C102.477 63.8346 102.425 63.9345 102.401 64.0422C102.353 64.1874 102.306 64.3325 102.258 64.4776C102.235 64.5296 102.23 64.5872 102.241 64.6426C102.25 64.6648 102.265 64.6843 102.284 64.6993C102.303 64.7142 102.325 64.724 102.349 64.7278C102.634 64.8115 102.919 64.8951 103.204 64.9787C103.302 65.0237 103.409 65.0467 103.517 65.046C103.625 65.0453 103.732 65.0209 103.829 64.9746Z" fill="#B1B1B1"/>
<path d="M125.344 83.7001C125.213 83.4854 125.081 83.2707 124.949 83.056C124.82 82.8074 124.643 82.5863 124.428 82.4051C124.382 82.3663 124.328 82.3371 124.271 82.319C124.213 82.3009 124.152 82.2943 124.092 82.2996C124.031 82.3049 123.972 82.322 123.919 82.3499C123.865 82.3778 123.817 82.416 123.778 82.4622L123.771 82.4706L123.788 82.5932C124.14 82.9696 124.381 83.4365 124.482 83.9414C124.512 84.1608 124.501 84.3879 124.528 84.6082C124.53 84.7104 124.553 84.811 124.595 84.9044C124.637 84.9977 124.697 85.0819 124.772 85.1521C124.979 85.2901 125.223 85.0867 125.37 84.8385C125.502 84.6347 125.562 84.3925 125.538 84.1511C125.506 83.9891 125.44 83.8356 125.344 83.7001Z" fill="#B1B1B1"/>
<path d="M127.412 83.9792C127.437 83.7782 127.42 83.5742 127.363 83.3798C127.354 83.1167 127.424 82.8568 127.565 82.6338C127.704 82.4234 127.81 82.1926 127.878 81.9498C127.907 81.8391 127.902 81.7225 127.863 81.6148C127.819 81.5173 127.714 81.4728 127.653 81.55L127.783 81.6332C127.608 81.6021 127.428 81.6107 127.257 81.6585C127.159 81.6957 127.072 81.7558 127.002 81.8337C126.933 81.9116 126.883 82.005 126.858 82.106C126.837 82.2634 126.802 82.4187 126.753 82.5702C126.676 82.7285 126.526 82.7811 126.432 82.92C126.368 83.0431 126.336 83.1802 126.338 83.3189C126.34 83.4575 126.377 83.5935 126.445 83.7144C126.564 83.9122 126.751 84.0592 126.972 84.1269C127.131 84.1835 127.339 84.1864 127.412 83.9792Z" fill="#B1B1B1"/>
<path d="M131.092 85.0842C131.15 85.2325 131.226 85.3725 131.32 85.5008C131.497 85.6775 131.736 85.5689 131.95 85.526C132.144 85.4955 132.342 85.5178 132.525 85.5906C132.707 85.6633 132.866 85.7838 132.985 85.9393C132.902 85.5278 132.721 85.1421 132.457 84.8146C132.194 84.4871 131.855 84.2274 131.469 84.0572C130.969 83.8847 130.441 83.8025 129.911 83.8146L129.82 83.8377C130.051 84.506 130.775 84.4911 131.092 85.0842Z" fill="#B1B1B1"/>
<path d="M115.504 86.4509L115.505 86.4538L115.532 86.4033L115.504 86.4509Z" fill="#6B60A5"/>
<path d="M114.946 87.5269C114.824 87.7469 114.719 87.9759 114.633 88.2118C114.518 88.5939 114.442 88.9865 114.406 89.3837C114.377 89.6096 114.369 89.898 114.511 90.0081C114.552 90.035 114.601 90.0463 114.649 90.0397C114.698 90.0332 114.742 90.0093 114.774 89.9724C114.853 89.8892 114.918 89.7936 114.966 89.6895C115.245 89.2105 115.462 88.698 115.611 88.1644C115.767 87.5984 115.73 86.9969 115.506 86.4541C115.319 86.8117 115.132 87.1693 114.946 87.5269Z" fill="#B1B1B1"/>
<path d="M109.56 58.8684C109.649 58.9547 109.761 59.0133 109.883 59.0369C110.004 59.0606 110.13 59.0482 110.245 59.0015C110.483 58.898 110.701 58.7547 110.89 58.5777C111.046 58.4625 111.179 58.3185 111.28 58.1534C111.336 58.0548 111.372 57.9461 111.386 57.8336C111.4 57.7211 111.391 57.607 111.36 57.4979C111.317 57.3934 111.247 57.3016 111.158 57.2314C111.068 57.1611 110.963 57.1147 110.85 57.0965C110.534 57.0031 110.218 56.9097 109.901 56.8163L110.13 56.611C109.895 56.4853 109.634 56.7187 109.487 57.0077C109.393 57.1964 109.327 57.398 109.292 57.6058C109.242 57.823 109.24 58.0485 109.286 58.2665C109.333 58.4845 109.426 58.6899 109.56 58.8684Z" fill="#B1B1B1"/>
<path d="M115.144 57.0015C115.234 57.0993 115.357 57.1597 115.489 57.1704C115.621 57.1811 115.753 57.1413 115.857 57.0591C115.946 56.9923 116.02 56.9075 116.075 56.8102C116.129 56.7128 116.162 56.6052 116.172 56.4944C116.194 56.2467 116.071 55.9714 115.895 55.95L115.936 55.7181C115.597 55.6573 115.181 55.6451 114.999 56.0542C114.938 56.211 114.919 56.3809 114.945 56.5472C114.97 56.7134 115.039 56.8701 115.144 57.0015Z" fill="#B1B1B1"/>
<path d="M81.8028 81.8193C81.4777 81.5285 81.2205 81.1705 81.0494 80.7702C80.8783 80.3699 80.7974 79.9371 80.8124 79.5024C80.8274 79.0676 80.938 78.6414 81.1363 78.2538C81.3346 77.8661 81.6159 77.5264 81.9603 77.2586L78.5293 67.249L83.8748 68.6311L86.3108 77.9241C86.7247 78.53 86.9009 79.2661 86.8059 79.9927C86.7108 80.7194 86.3513 81.386 85.7953 81.8664C85.2393 82.3467 84.5256 82.6072 83.7895 82.5986C83.0533 82.59 82.346 82.3128 81.8015 81.8196L81.8028 81.8193Z" fill="#FFB7B7"/>
<path d="M80.2693 75.7449L85.4557 73.4443L83.7133 55.9832L85.336 38.376L78.4115 34.6562L76.9443 36.4976V36.5394L76.167 58.8041L76.1711 58.8209L80.2693 75.7449Z" fill="#6B60A5"/>
<path d="M159.721 127.778C156.788 126.436 153.625 124.855 150.231 123.034C132.678 113.615 111.093 98.921 89.4526 81.6597C67.8121 64.3984 48.7014 46.6313 35.6409 31.632C29.2787 24.3252 24.696 18.0677 22.0201 13.0332C19.187 7.70317 18.6156 3.92607 20.3216 1.80702C23.6452 -2.32118 34.4689 1.39714 42.9636 5.24342L42.6532 5.92292C30.9877 0.64093 23.2647 -0.654927 20.9068 2.27388C17.9036 6.00408 23.4806 16.5264 36.2076 31.1431C49.2394 46.1095 68.3152 63.8432 89.9215 81.0773C111.528 98.3112 133.073 112.978 150.587 122.377C167.691 131.555 179.224 134.68 182.227 130.95C184.721 127.853 181.32 120.052 172.651 108.985L173.242 108.526C179.541 116.568 186.315 127.067 182.813 131.417C181.107 133.536 177.279 133.804 171.435 132.213C168.104 131.306 164.184 129.821 159.721 127.778Z" fill="#E1E1E1"/>
<path d="M47.4264 77.4474C39.3413 73.7469 31.9527 70.0303 25.4813 66.3931C17.0226 61.6388 10.5941 57.2775 6.37442 53.4309C1.90687 49.3579 0.093711 45.9915 0.985301 43.4251C2.72195 38.4256 14.1716 38.3079 23.471 39.0895L23.4077 39.8335C10.6375 38.76 2.92613 40.1221 1.6939 43.6692C0.124516 48.1869 8.92908 56.2324 25.85 65.743C43.1762 75.4814 67.129 85.8047 93.2967 94.8105C119.464 103.817 144.707 110.426 164.376 113.421C183.585 116.345 195.502 115.432 197.071 110.914C198.374 107.163 192.538 100.954 180.637 93.4288L181.039 92.7987C189.686 98.2663 199.61 105.89 197.78 111.158C196.888 113.724 193.373 115.257 187.333 115.713C181.627 116.144 173.865 115.621 164.263 114.159C144.55 111.158 119.261 104.537 93.0516 95.5162C76.6102 89.8572 61.0353 83.6766 47.4264 77.4474Z" fill="#E1E1E1"/>
<path d="M59.6926 39.4579C62.1062 39.4579 64.0628 37.5103 64.0628 35.1079C64.0628 32.7054 62.1062 30.7578 59.6926 30.7578C57.2789 30.7578 55.3223 32.7054 55.3223 35.1079C55.3223 37.5103 57.2789 39.4579 59.6926 39.4579Z" fill="#607EA5" fill-opacity="0.2"/>
<path d="M145.834 92.5534C147.312 92.5534 148.51 91.3611 148.51 89.8905C148.51 88.4198 147.312 87.2275 145.834 87.2275C144.357 87.2275 143.159 88.4198 143.159 89.8905C143.159 91.3611 144.357 92.5534 145.834 92.5534Z" fill="#F2F1F5"/>
<path d="M14.9924 115.929C17.406 115.929 19.3626 113.981 19.3626 111.579C19.3626 109.176 17.406 107.229 14.9924 107.229C12.5787 107.229 10.6221 109.176 10.6221 111.579C10.6221 113.981 12.5787 115.929 14.9924 115.929Z" fill="#DFE5ED"/>
</g>
<defs>
<clipPath id="clip0_7283_12932">
<rect width="198" height="149" fill="white"/>
</clipPath>
</defs>
</svg>
