<svg width="140" height="140" viewBox="0 0 140 140" fill="none" xmlns="http://www.w3.org/2000/svg">
<circle cx="70" cy="70" r="70" fill="#6B60A5" fill-opacity="0.1"/>
<ellipse cx="70.3138" cy="81.0308" rx="5.88903" ry="3.74756" fill="#6B60A5"/>
<path d="M82.3592 81.0305C82.3592 83.1279 81.0554 85.0621 78.8741 86.4847C76.6953 87.9057 73.6694 88.7933 70.3134 88.7933C66.9575 88.7933 63.9316 87.9057 61.7527 86.4847C59.5715 85.0621 58.2677 83.1279 58.2677 81.0305C58.2677 78.9331 59.5715 76.9989 61.7527 75.5763C63.9316 74.1553 66.9575 73.2677 70.3134 73.2677C73.6694 73.2677 76.6953 74.1553 78.8741 75.5763C81.0554 76.9989 82.3592 78.9331 82.3592 81.0305Z" stroke="#6B60A5" stroke-width="0.535366"/>
<path d="M82.1188 66.4613L69.5179 80.6611L56.9169 66.4613C53.7572 62.8994 52 58.2168 52 53.3537C52 43.216 59.8424 35 69.5179 35C79.1934 35 87.0358 43.216 87.0358 53.3537C87.0358 58.2168 85.2786 62.8994 82.1188 66.4613Z" fill="#FF3838"/>
<path d="M69.5174 63.8687C75.2369 63.8687 79.8736 59.2321 79.8736 53.5125C79.8736 47.7929 75.2369 43.1562 69.5174 43.1562C63.7978 43.1562 59.1611 47.7929 59.1611 53.5125C59.1611 59.2321 63.7978 63.8687 69.5174 63.8687Z" fill="#FFB1B1"/>
<path d="M69.5135 61.3406C73.836 61.3406 77.3401 57.8365 77.3401 53.514C77.3401 49.1916 73.836 45.6875 69.5135 45.6875C65.1911 45.6875 61.687 49.1916 61.687 53.514C61.687 57.8365 65.1911 61.3406 69.5135 61.3406Z" fill="white"/>
<path d="M69.5104 61.8138C67.2942 61.8138 65.2077 60.9495 63.6405 59.3823C62.0733 57.8151 61.209 55.7286 61.209 53.5124C61.209 51.2961 62.0733 49.2097 63.6405 47.6425C65.2077 46.0753 67.2942 45.2109 69.5104 45.2109C71.7267 45.2109 73.8131 46.0753 75.3803 47.6425C76.9475 49.2097 77.8119 51.2961 77.8119 53.5124C77.8119 55.7286 76.9475 57.8151 75.3803 59.3823C73.8131 60.9526 71.7267 61.8138 69.5104 61.8138ZM69.5104 46.1639C65.4579 46.1639 62.1588 49.463 62.1588 53.5155C62.1588 57.5681 65.4579 60.8672 69.5104 60.8672C73.563 60.8672 76.862 57.5681 76.862 53.5155C76.862 49.463 73.563 46.1639 69.5104 46.1639Z" fill="white"/>
</svg>
