<svg width="105" height="105" viewBox="0 0 105 105" fill="none" xmlns="http://www.w3.org/2000/svg">
<g clip-path="url(#clip0_7182_3797)">
<path d="M101.825 26.6294C99.0691 16.4842 88.5179 5.93086 78.3706 3.17461C72.1485 1.62422 63.8142 0.0266602 52.5 0C41.1858 0.0266602 32.8515 1.62422 26.6294 3.17461C16.4842 5.93086 5.93086 16.4821 3.17461 26.6294C1.62422 32.8515 0.0266602 41.1858 0 52.5C0.0266602 63.8142 1.62422 72.1485 3.17461 78.3706C5.93086 88.5179 16.4842 99.0691 26.6294 101.825C32.8515 103.376 41.1899 104.973 52.5 105C63.8121 104.973 72.1485 103.376 78.3706 101.825C88.5179 99.0691 99.0691 88.5179 101.825 78.3706C103.376 72.1485 104.973 63.8101 105 52.5C104.973 41.1858 103.376 32.8515 101.825 26.6294Z" fill="#FBF7FF"/>
<path d="M79.0893 49.4246L75.2643 44.948C74.556 44.098 73.961 42.5114 73.961 41.378V36.5613C73.961 33.558 71.496 31.093 68.4926 31.093H63.676C62.5426 31.093 60.9276 30.498 60.0776 29.7897L55.601 25.9647C53.646 24.293 50.4443 24.293 48.4893 25.9647L43.9558 29.7897C43.1059 30.498 41.5192 31.093 40.3858 31.093H35.4842C32.4808 31.093 30.0158 33.558 30.0158 36.5613V41.378C30.0158 42.483 29.4492 44.0697 28.7408 44.9197L24.9158 49.4246C23.2725 51.4079 23.2725 54.5813 24.9158 56.5079L28.7408 61.0129C29.4492 61.8346 30.0158 63.4496 30.0158 64.5546V69.3996C30.0158 72.4029 32.4808 74.8679 35.4842 74.8679H40.4142C41.5192 74.8679 43.1342 75.4629 43.9842 76.1713L48.461 79.9963C50.416 81.6679 53.6176 81.6679 55.5726 79.9963L60.0493 76.1713C60.8993 75.4629 62.486 74.8679 63.6193 74.8679H68.436C71.4393 74.8679 73.9043 72.4029 73.9043 69.3996V64.5829C73.9043 63.4496 74.4993 61.8629 75.2076 61.0129L79.0326 56.5363C80.761 54.6096 80.761 51.4079 79.0893 49.4246ZM49.8776 42.0297C49.8776 40.868 50.841 39.9047 52.0026 39.9047C53.1643 39.9047 54.1276 40.868 54.1276 42.0297V55.7146C54.1276 56.8763 53.1643 57.8396 52.0026 57.8396C50.841 57.8396 49.8776 56.8763 49.8776 55.7146V42.0297ZM52.0026 66.7929C50.4443 66.7929 49.1693 65.5179 49.1693 63.9596C49.1693 62.4013 50.416 61.1263 52.0026 61.1263C53.561 61.1263 54.836 62.4013 54.836 63.9596C54.836 65.5179 53.5893 66.7929 52.0026 66.7929Z" fill="#6B60A5"/>
</g>
<defs>
<clipPath id="clip0_7182_3797">
<rect width="105" height="105" fill="white"/>
</clipPath>
</defs>
</svg>
