<svg width="43" height="43" viewBox="0 0 43 43" fill="none" xmlns="http://www.w3.org/2000/svg">
<path d="M21.0728 18.5403C16.1923 18.5403 12.2221 14.5701 12.2221 9.6896C12.2221 4.80905 16.1923 0.838867 21.0728 0.838867C25.9534 0.838867 29.9235 4.80905 29.9235 9.6896C29.9235 14.5701 25.9534 18.5403 21.0728 18.5403ZM21.0728 3.36765C17.5869 3.36765 14.7509 6.20368 14.7509 9.6896C14.7509 13.1755 17.5869 16.0116 21.0728 16.0116C24.5587 16.0116 27.3948 13.1755 27.3948 9.6896C27.3948 6.20368 24.5587 3.36765 21.0728 3.36765ZM21.0728 41.2994C19.3903 41.2994 4.63574 41.0865 4.63574 33.713C4.63574 29.1309 11.538 22.3335 21.0728 22.3335C30.6076 22.3335 37.5099 29.1309 37.5099 33.713C37.5099 41.0865 22.7553 41.2994 21.0728 41.2994ZM21.0728 24.8623C12.8998 24.8623 7.16452 30.6039 7.16452 33.713C7.16452 37.201 15.2979 38.7706 21.0728 38.7706C26.8477 38.7706 34.9811 37.201 34.9811 33.713C34.9811 30.6039 29.2458 24.8623 21.0728 24.8623Z" fill="#070707"/>
</svg>
