<svg width="152" height="149" viewBox="0 0 152 149" fill="none" xmlns="http://www.w3.org/2000/svg">
<g clip-path="url(#clip0_7147_1961)">
<path d="M96.9483 33.4004H88.8607V102.763C88.8607 103.852 88.6476 104.929 88.2336 105.935C87.8196 106.94 87.2128 107.854 86.4479 108.623C85.6829 109.393 84.7748 110.003 83.7753 110.42C82.7758 110.836 81.7046 111.051 80.6228 111.051H18.79V111.13C18.79 112.218 19.0031 113.296 19.4171 114.301C19.8311 115.307 20.4379 116.22 21.2029 116.99C21.9678 117.759 22.876 118.37 23.8754 118.786C24.8749 119.203 25.9462 119.417 27.028 119.417H96.9482C98.0301 119.417 99.1013 119.203 100.101 118.786C101.1 118.37 102.008 117.759 102.773 116.99C103.538 116.22 104.145 115.307 104.559 114.301C104.973 113.296 105.186 112.218 105.186 111.13V41.6876C105.186 39.4897 104.318 37.3818 102.773 35.8276C101.228 34.2735 99.1331 33.4004 96.9483 33.4004Z" fill="#EBEBEB"/>
<path d="M135.286 143.629C135.429 143.635 135.571 143.598 135.692 143.521C135.813 143.443 135.908 143.331 135.963 143.198C136.019 143.065 136.032 142.918 136.001 142.777C135.971 142.636 135.898 142.508 135.793 142.41L135.745 142.218C135.751 142.203 135.758 142.188 135.764 142.172C135.908 141.83 136.15 141.538 136.459 141.333C136.768 141.128 137.13 141.019 137.5 141.02C137.87 141.022 138.231 141.133 138.538 141.34C138.845 141.548 139.085 141.842 139.227 142.185C139.793 143.558 140.514 144.932 140.692 146.383C140.77 147.024 140.737 147.674 140.594 148.304C141.924 145.385 142.615 142.213 142.619 139.002C142.62 138.196 142.575 137.391 142.486 136.59C142.413 135.934 142.31 135.282 142.18 134.635C141.467 131.123 139.936 127.832 137.713 125.032C136.638 124.441 135.768 123.533 135.22 122.43C135.022 122.034 134.882 121.61 134.805 121.173C134.926 121.189 135.262 119.33 135.171 119.216C135.34 118.958 135.643 118.829 135.827 118.577C136.746 117.324 138.012 117.543 138.672 119.246C140.084 119.962 140.097 121.151 139.231 122.294C138.68 123.021 138.605 124.005 138.121 124.784C138.171 124.848 138.223 124.91 138.272 124.974C139.182 126.15 139.974 127.413 140.638 128.745C140.477 127.253 140.67 125.744 141.201 124.341C141.739 123.035 142.749 121.934 143.638 120.804C143.873 120.501 144.192 120.274 144.555 120.153C144.918 120.032 145.309 120.022 145.677 120.125C146.046 120.227 146.376 120.437 146.626 120.728C146.877 121.019 147.035 121.378 147.083 121.76C147.084 121.776 147.086 121.793 147.088 121.81C146.956 121.885 146.827 121.964 146.7 122.048C146.541 122.155 146.418 122.308 146.347 122.486C146.276 122.664 146.26 122.86 146.301 123.048C146.343 123.235 146.439 123.406 146.579 123.537C146.718 123.669 146.894 123.755 147.083 123.784L147.102 123.787C147.055 124.266 146.972 124.74 146.853 125.206C147.993 129.642 145.532 131.258 142.017 131.33C141.939 131.37 141.863 131.41 141.786 131.448C142.453 133.351 142.872 135.333 143.031 137.345C143.122 138.531 143.116 139.723 143.015 140.909L143.021 140.867C143.276 139.548 143.975 138.359 145.001 137.499C146.524 136.24 148.677 135.776 150.32 134.764C150.495 134.651 150.698 134.591 150.905 134.591C151.113 134.59 151.316 134.649 151.491 134.761C151.667 134.873 151.806 135.033 151.894 135.223C151.982 135.412 152.014 135.622 151.987 135.829L151.98 135.874C151.735 135.974 151.497 136.09 151.266 136.22C151.134 136.295 151.005 136.374 150.878 136.458C150.719 136.565 150.596 136.718 150.525 136.896C150.454 137.074 150.438 137.27 150.479 137.458C150.521 137.645 150.617 137.816 150.757 137.947C150.896 138.079 151.072 138.165 151.26 138.194L151.28 138.197C151.294 138.199 151.306 138.201 151.32 138.203C150.901 139.209 150.313 140.134 149.583 140.939C148.87 144.812 145.808 145.179 142.532 144.051H142.53C142.171 145.622 141.65 147.152 140.976 148.614H135.425C135.405 148.552 135.388 148.488 135.37 148.426C135.883 148.459 136.399 148.428 136.906 148.334C136.494 147.826 136.082 147.314 135.67 146.805C135.661 146.796 135.652 146.786 135.644 146.775C135.435 146.515 135.224 146.257 135.016 145.997L135.015 145.996C135.004 145.199 135.095 144.403 135.286 143.629Z" fill="#3B434F"/>
<path d="M74.1497 23.9646C74.3524 24.2735 74.6193 24.5344 74.9321 24.7293C75.2448 24.9242 75.5959 25.0484 75.9611 25.0934C76.3262 25.1383 76.6967 25.103 77.047 24.9897C77.3972 24.8765 77.7188 24.688 77.9895 24.4374L89.5298 29.6751L91.7547 26.8202L78.003 20.7001C77.5498 20.2731 76.9566 20.0281 76.3359 20.0116C75.7151 19.9951 75.11 20.2083 74.635 20.6107C74.16 21.0131 73.8483 21.5768 73.7589 22.1949C73.6694 22.8131 73.8085 23.4427 74.1497 23.9646Z" fill="#6B60A5"/>
<path d="M123.676 27.2308L124.821 33.7555C124.874 34.0599 124.864 34.3721 124.79 34.6722C124.716 34.9723 124.581 35.2536 124.393 35.498C124.205 35.7424 123.968 35.9446 123.698 36.0914C123.427 36.2383 123.129 36.3267 122.823 36.351L103.375 37.8895L80.5137 27.597L83.2441 22.3828L103.089 28.7048L123.676 27.2308Z" fill="#6B60A5"/>
<path d="M78.1582 22.5547H8.23794C3.68825 22.5547 0 26.265 0 30.8419V100.284C0 104.861 3.68825 108.571 8.23794 108.571H78.1582C82.7079 108.571 86.3962 104.861 86.3962 100.284V30.8419C86.3962 26.265 82.7079 22.5547 78.1582 22.5547Z" fill="#EBEBEB"/>
<path d="M8.23813 24.2588C7.37879 24.2588 6.52786 24.4291 5.73393 24.7599C4.94 25.0907 4.21862 25.5756 3.61097 26.1869C3.00332 26.7982 2.5213 27.5238 2.19245 28.3225C1.86359 29.1212 1.69434 29.9772 1.69434 30.8417V100.284C1.69434 102.03 2.38377 103.704 3.61097 104.939C4.83817 106.173 6.50261 106.867 8.23813 106.867H52.863C57.0441 106.867 61.1844 106.039 65.0473 104.429C68.9102 102.819 72.4201 100.46 75.3766 97.4858C78.3332 94.5116 80.6784 90.9807 82.2785 87.0947C83.8786 83.2088 84.7021 79.0438 84.7021 74.8376V30.8417C84.7021 29.9772 84.5328 29.1212 84.204 28.3225C83.8751 27.5238 83.3931 26.7982 82.7855 26.1869C82.1778 25.5756 81.4564 25.0907 80.6625 24.7599C79.8686 24.4291 79.0176 24.2588 78.1583 24.2588H8.23813Z" fill="white"/>
<path d="M62.7442 45.3334H23.4994C23.1393 45.3334 22.7939 45.1895 22.5393 44.9333C22.2847 44.6772 22.1416 44.3297 22.1416 43.9675C22.1416 43.6052 22.2847 43.2578 22.5393 43.0016C22.7939 42.7455 23.1393 42.6016 23.4994 42.6016H62.7442C63.1043 42.6016 63.4496 42.7455 63.7043 43.0016C63.9589 43.2578 64.102 43.6052 64.102 43.9675C64.102 44.3297 63.9589 44.6772 63.7043 44.9333C63.4496 45.1895 63.1043 45.3334 62.7442 45.3334Z" fill="#EBEBEB"/>
<path d="M62.7442 74.4613H23.4994C23.1393 74.4613 22.7939 74.3174 22.5393 74.0612C22.2847 73.8051 22.1416 73.4577 22.1416 73.0954C22.1416 72.7331 22.2847 72.3857 22.5393 72.1296C22.7939 71.8734 23.1393 71.7295 23.4994 71.7295H62.7442C63.1043 71.7295 63.4496 71.8734 63.7043 72.1296C63.9589 72.3857 64.102 72.7331 64.102 73.0954C64.102 73.4577 63.9589 73.8051 63.7043 74.0612C63.4496 74.3174 63.1043 74.4613 62.7442 74.4613Z" fill="#EBEBEB"/>
<path d="M78.6806 59.9076H7.56287C7.20276 59.9076 6.8574 59.7637 6.60277 59.5075C6.34813 59.2514 6.20508 58.904 6.20508 58.5417C6.20508 58.1794 6.34813 57.832 6.60277 57.5758C6.8574 57.3197 7.20276 57.1758 7.56287 57.1758H78.6806C79.0407 57.1758 79.3861 57.3197 79.6407 57.5758C79.8953 57.832 80.0384 58.1794 80.0384 58.5417C80.0384 58.904 79.8953 59.2514 79.6407 59.5075C79.3861 59.7637 79.0407 59.9076 78.6806 59.9076Z" fill="#EBEBEB"/>
<path d="M121.218 55.9894L114.134 71.173L141.387 68.3962L135.698 53.8203L121.218 55.9894Z" fill="#6B60A5"/>
<path d="M127.555 143.259L124.971 143.237L123.827 132.977L127.641 133.009L127.555 143.259Z" fill="#FFB6B6"/>
<path d="M119.278 147.392C119.276 147.7 119.395 147.997 119.61 148.217C119.825 148.436 120.117 148.562 120.424 148.565L125.561 148.608L126.461 146.774L126.791 148.617L128.729 148.635L128.24 142.06L127.565 142.015L124.815 141.824L123.927 141.765L123.912 143.625L119.785 146.441C119.63 146.546 119.503 146.688 119.415 146.854C119.327 147.019 119.28 147.204 119.278 147.392Z" fill="#2A2939"/>
<path d="M98.9587 143.271L96.4951 142.486L98.3984 132.341L102.034 133.499L98.9587 143.271Z" fill="#FFB6B6"/>
<path d="M89.8407 144.775C89.7485 145.069 89.776 145.387 89.9171 145.661C90.0581 145.934 90.3013 146.14 90.5932 146.234L95.4913 147.794L96.8866 146.306L96.664 148.166L98.5118 148.756L99.964 142.327L99.3326 142.084L96.7588 141.089L95.9279 140.77L95.3698 142.543L90.6025 144.015C90.4239 144.07 90.2613 144.168 90.1286 144.3C89.9959 144.433 89.8971 144.596 89.8407 144.775Z" fill="#2A2939"/>
<path d="M140.146 64.126L115.366 68.6937C115.366 68.6937 111.392 71.6845 112.455 72.7556C113.518 73.8267 113.683 73.6608 112.985 74.3635C112.286 75.0662 110.776 76.0056 110.761 76.6205C110.746 77.2353 99.657 104.814 99.657 104.814C99.657 104.814 100.889 104.194 99.965 105.124C99.0409 106.053 99.0409 106.821 99.0409 106.821L94.7285 136.11L101.732 136.525L108.59 109.823L123.886 84.8771C123.886 84.8771 125.404 107.122 125.468 108.602C125.531 110.081 126.455 108.222 125.531 110.081C124.607 111.941 123.991 110.701 124.607 111.941C125.223 113.18 122.388 138.414 122.388 138.414H128.781L142.491 86.111C142.491 86.111 147.369 71.1581 140.146 64.126Z" fill="#1F2125"/>
<path d="M132.847 22.2905L122.921 21.2529L120.349 24.6117L117.353 26.2169C116.085 26.8962 115.039 27.9285 114.339 29.1903C113.639 30.4521 113.315 31.8901 113.406 33.3322L116.907 53.8204C116.907 53.8204 113.949 60.5196 115.983 62.1869C118.016 63.8543 114.411 67.9837 118.755 65.9053C123.099 63.827 141.857 66.2152 141.857 66.2152L137.853 54.7501L140.844 43.484L141.173 34.0375C141.235 32.2723 140.714 30.5362 139.692 29.0998C138.671 27.6634 137.205 26.6075 135.524 26.0966L135.106 25.9694L132.847 22.2905Z" fill="#6B60A5"/>
<path d="M146.512 14.6353C146.577 17.4499 145.531 20.1752 144.029 22.5689C143.583 21.1715 142.78 19.8996 141.944 18.6872C142.365 21.31 141.916 23.9995 140.665 26.3396C140.621 26.3713 140.576 26.4008 140.529 26.4279C139.304 27.1688 137.752 27.4689 136.427 26.9338C139.164 23.9662 139.512 19.0495 137.218 15.7209C136.568 14.7765 135.728 13.9411 135.326 12.8663C134.691 11.1513 135.301 9.26307 135.687 7.47503C136.047 5.81091 136.11 3.83058 135 2.61099C135.119 2.44055 135.28 2.30488 135.468 2.21789C135.656 2.13089 135.863 2.09569 136.069 2.1159C136.753 2.21313 137.251 2.81145 137.568 3.42768C137.886 4.04388 138.095 4.72685 138.537 5.25911C139.356 6.25534 140.75 6.49087 141.925 7.0159C144.77 8.29089 146.444 11.5035 146.512 14.6353Z" fill="#1F2125"/>
<path d="M73.2031 148.631C73.203 148.68 73.2124 148.728 73.2307 148.773C73.2491 148.818 73.2761 148.858 73.3102 148.892C73.3442 148.927 73.3847 148.954 73.4292 148.972C73.4738 148.991 73.5215 149 73.5697 149H151.59C151.687 149 151.781 148.961 151.849 148.892C151.918 148.823 151.957 148.729 151.957 148.631C151.957 148.534 151.918 148.44 151.849 148.371C151.781 148.302 151.687 148.263 151.59 148.263H73.5697C73.5215 148.263 73.4738 148.272 73.4292 148.29C73.3847 148.309 73.3442 148.336 73.3102 148.37C73.2761 148.405 73.2491 148.445 73.2307 148.49C73.2124 148.535 73.203 148.583 73.2031 148.631Z" fill="#EBEBEB"/>
<path d="M147.126 79.8677C148.657 79.8677 149.898 78.6191 149.898 77.0789C149.898 75.5386 148.657 74.29 147.126 74.29C145.595 74.29 144.354 75.5386 144.354 77.0789C144.354 78.6191 145.595 79.8677 147.126 79.8677Z" fill="#6B60A5"/>
<path d="M122.56 13.0259C122.723 12.4534 121.602 15.953 122.143 16.0162C124.606 16.3004 127.988 17.7803 129.703 18.4707C129.78 18.4617 129.858 18.4527 129.933 18.4414C130.117 18.4211 130.296 18.3917 130.474 18.3579C134.468 17.5976 136.004 11.4245 136.004 11.3681C136.004 11.0906 135.342 3.46865 134.299 3.35586C134.025 3.32596 133.75 3.31089 133.474 3.31073H130.886C130.351 3.19464 129.808 3.11549 129.262 3.07383H129.257C124.047 2.67448 119.938 5.86924 120.322 9.75666C120.325 9.76117 120.329 9.76569 120.331 9.7702C120.443 9.93716 120.541 10.0951 120.627 10.2463C120.711 10.3884 120.781 10.5238 120.843 10.6524C121.318 11.6451 120.097 12.8943 120.906 13.1274C121.983 13.4375 118.075 23.63 122.336 23.63C120.263 24.2228 122.112 14.6052 122.56 13.0259Z" fill="#111111"/>
<path d="M127.212 19.0065C130.596 19.0065 133.34 16.2466 133.34 12.8421C133.34 9.43763 130.596 6.67773 127.212 6.67773C123.827 6.67773 121.084 9.43763 121.084 12.8421C121.084 16.2466 123.827 19.0065 127.212 19.0065Z" fill="#FFB6B6"/>
<path d="M120.322 10.093C120.425 10.1472 120.525 10.1968 120.627 10.2465C120.734 10.2983 120.84 10.3502 120.947 10.3976C122.999 11.3339 124.669 11.4377 125.683 10.093C125.71 9.38548 125.868 8.68922 126.148 8.03989C126.099 8.76553 126.289 9.48731 126.689 10.093H128.73C130.832 11.4964 131.911 11.643 130.452 16.2502C130.045 17.5339 128.428 25.0042 129.064 26.112C129.248 26.0917 131.207 17.9094 131.384 17.8756C135.379 17.1153 137.917 10.4946 137.592 10.1201C137.593 9.05506 137.35 8.00408 136.881 7.04943C136.287 5.83995 135.361 4.82685 134.213 4.12993C133.528 3.7961 132.815 3.52647 132.081 3.32446C132.063 3.31994 132.047 3.31543 132.029 3.31093C131.804 3.25 131.575 3.1936 131.345 3.14622C130.871 3.04551 130.392 2.97244 129.909 2.92737C129.875 2.92511 129.841 2.92285 129.809 2.92285C129.616 2.92331 129.427 2.97549 129.262 3.07403C129.259 3.07403 129.259 3.07627 129.257 3.07627C129.138 3.14597 129.035 3.23878 128.952 3.34927C128.807 3.53517 128.729 3.76493 128.73 4.00131H126.457C126.373 4.00131 126.289 4.00356 126.205 4.00807C124.689 4.06021 123.246 4.67978 122.16 5.74555C121.073 6.81131 120.421 8.24656 120.331 9.7704C120.325 9.87869 120.322 9.98472 120.322 10.093Z" fill="#1F2125"/>
<path d="M133.721 8.12228C135.95 8.12228 137.758 6.30405 137.758 4.06114C137.758 1.81824 135.95 0 133.721 0C131.491 0 129.684 1.81824 129.684 4.06114C129.684 6.30405 131.491 8.12228 133.721 8.12228Z" fill="#1F2125"/>
<path d="M147.157 78.2293C147.354 77.9167 147.481 77.5649 147.53 77.198C147.578 76.8312 147.547 76.4581 147.438 76.1046C147.329 75.7511 147.145 75.4256 146.899 75.1506C146.653 74.8756 146.35 74.6577 146.012 74.512L146.032 61.776L142.532 60.9043L142.618 76.0313C142.416 76.6221 142.437 77.2668 142.677 77.8432C142.916 78.4196 143.357 78.8875 143.917 79.1585C144.476 79.4294 145.115 79.4845 145.712 79.3132C146.31 79.1419 146.824 78.7563 147.157 78.2293Z" fill="#6B60A5"/>
<path d="M129.822 31.4444L135.27 27.7203C135.524 27.5465 135.811 27.4282 136.113 27.3728C136.416 27.3174 136.726 27.3262 137.025 27.3987C137.324 27.4711 137.604 27.6056 137.848 27.7935C138.092 27.9814 138.294 28.2185 138.442 28.4896L147.807 45.7055L147.843 70.9011L141.996 70.5325L139.595 49.7311L129.822 31.4444Z" fill="#6B60A5"/>
<path d="M87.9869 88.585H29.7696C28.5033 88.585 27.2889 89.091 26.3935 89.9917C25.4981 90.8925 24.9951 92.1141 24.9951 93.3879C24.9951 94.6618 25.4981 95.8834 26.3935 96.7842C27.2889 97.6849 28.5033 98.1909 29.7696 98.1909H87.9869C89.2532 98.1909 90.4676 97.6849 91.363 96.7842C92.2583 95.8834 92.7613 94.6618 92.7613 93.3879C92.7613 92.1141 92.2583 90.8925 91.363 89.9917C90.4676 89.091 89.2532 88.585 87.9869 88.585Z" fill="white"/>
<path d="M87.9873 98.5001H29.77C28.422 98.5001 27.1293 97.9614 26.1761 97.0026C25.223 96.0437 24.6875 94.7433 24.6875 93.3873C24.6875 92.0312 25.223 90.7308 26.1761 89.7719C27.1293 88.8131 28.422 88.2744 29.77 88.2744H87.9873C89.3353 88.2744 90.628 88.8131 91.5812 89.7719C92.5343 90.7308 93.0698 92.0312 93.0698 93.3873C93.0698 94.7433 92.5343 96.0437 91.5812 97.0026C90.628 97.9614 89.3353 98.5001 87.9873 98.5001ZM29.77 88.8942C28.5854 88.8942 27.4494 89.3675 26.6117 90.2102C25.7741 91.0528 25.3036 92.1956 25.3036 93.3873C25.3036 94.5789 25.7741 95.7217 26.6117 96.5643C27.4494 97.407 28.5854 97.8803 29.77 97.8803H87.9873C89.1719 97.8803 90.3079 97.407 91.1455 96.5643C91.9832 95.7217 92.4537 94.5789 92.4537 93.3873C92.4537 92.1956 91.9832 91.0528 91.1455 90.2102C90.3079 89.3675 89.1719 88.8942 87.9873 88.8942H29.77Z" fill="#6B60A5"/>
<path d="M91.4194 109.545H65.7279C65.3678 109.545 65.0224 109.401 64.7678 109.145C64.5132 108.889 64.3701 108.542 64.3701 108.179C64.3701 107.817 64.5132 107.47 64.7678 107.214C65.0224 106.957 65.3678 106.813 65.7279 106.813H91.4194C91.7795 106.813 92.1249 106.957 92.3795 107.214C92.6342 107.47 92.7772 107.817 92.7772 108.179C92.7772 108.542 92.6342 108.889 92.3795 109.145C92.1249 109.401 91.7795 109.545 91.4194 109.545Z" fill="#6B60A5"/>
</g>
<defs>
<clipPath id="clip0_7147_1961">
<rect width="152" height="149" fill="white"/>
</clipPath>
</defs>
</svg>
