<svg width="26" height="26" viewBox="0 0 26 26" fill="none" xmlns="http://www.w3.org/2000/svg">
<path d="M13 16.25C14.7949 16.25 16.25 14.7949 16.25 13C16.25 11.2051 14.7949 9.75 13 9.75C11.2051 9.75 9.75 11.2051 9.75 13C9.75 14.7949 11.2051 16.25 13 16.25Z" stroke="#808080" stroke-width="1.625" stroke-miterlimit="10" stroke-linecap="round" stroke-linejoin="round"/>
<path d="M2.1665 13.9542V12.0475C2.1665 10.9209 3.08734 9.9892 4.22484 9.9892C6.18567 9.9892 6.98734 8.60253 6.0015 6.9017C5.43817 5.9267 5.774 4.6592 6.75984 4.09587L8.634 3.02337C9.48984 2.5142 10.5948 2.81753 11.104 3.67337L11.2232 3.8792C12.1982 5.58003 13.8015 5.58003 14.7873 3.8792L14.9065 3.67337C15.4157 2.81753 16.5207 2.5142 17.3765 3.02337L19.2507 4.09587C20.2365 4.6592 20.5723 5.9267 20.009 6.9017C19.0232 8.60253 19.8248 9.9892 21.7857 9.9892C22.9123 9.9892 23.844 10.91 23.844 12.0475V13.9542C23.844 15.0809 22.9232 16.0125 21.7857 16.0125C19.8248 16.0125 19.0232 17.3992 20.009 19.1C20.5723 20.0859 20.2365 21.3425 19.2507 21.9059L17.3765 22.9784C16.5207 23.4875 15.4157 23.1842 14.9065 22.3284L14.7873 22.1225C13.8123 20.4217 12.209 20.4217 11.2232 22.1225L11.104 22.3284C10.5948 23.1842 9.48984 23.4875 8.634 22.9784L6.75984 21.9059C5.774 21.3425 5.43817 20.075 6.0015 19.1C6.98734 17.3992 6.18567 16.0125 4.22484 16.0125C3.08734 16.0125 2.1665 15.0809 2.1665 13.9542Z" stroke="#808080" stroke-width="1.625" stroke-miterlimit="10" stroke-linecap="round" stroke-linejoin="round"/>
</svg>
