<svg width="105" height="105" viewBox="0 0 105 105" fill="none" xmlns="http://www.w3.org/2000/svg">
<g clip-path="url(#clip0_7147_2092)">
<path d="M101.825 26.6294C99.0691 16.4842 88.5179 5.93086 78.3706 3.17461C72.1485 1.62422 63.8142 0.0266602 52.5 0C41.1858 0.0266602 32.8515 1.62422 26.6294 3.17461C16.4842 5.93086 5.93086 16.4821 3.17461 26.6294C1.62422 32.8515 0.0266602 41.1858 0 52.5C0.0266602 63.8142 1.62422 72.1485 3.17461 78.3706C5.93086 88.5179 16.4842 99.0691 26.6294 101.825C32.8515 103.376 41.1899 104.973 52.5 105C63.8121 104.973 72.1485 103.376 78.3706 101.825C88.5179 99.0691 99.0691 88.5179 101.825 78.3706C103.376 72.1485 104.973 63.8101 105 52.5C104.973 41.1858 103.376 32.8515 101.825 26.6294Z" fill="#F9F8FA"/>
<path d="M84.3466 45.5851C82.9015 44.1796 81.4529 42.7694 80.001 41.3544C79.96 39.3897 79.9087 37.4237 79.8472 35.4563C79.7651 32.8252 78.629 30.315 76.6767 28.3627C74.7963 26.4433 72.2553 25.3126 69.5707 25.2003C67.5992 25.1388 65.6291 25.0876 63.6604 25.0465C62.2357 23.6028 60.8255 22.1584 59.4296 20.7132C58.5439 19.7614 57.4715 19.0023 56.2795 18.4832C55.0874 17.9642 53.8012 17.6963 52.501 17.6963C51.2009 17.6963 49.9146 17.9642 48.7226 18.4832C47.5305 19.0023 46.4582 19.7614 45.5725 20.7132C44.1752 22.1597 42.7622 23.6076 41.3335 25.0568C39.3647 25.0951 37.396 25.1457 35.4272 25.2086C30.0029 25.3931 25.3354 30.0504 25.1508 35.4625C25.0893 37.4271 25.038 39.3931 24.997 41.3605C23.5464 42.7783 22.0979 44.1872 20.6514 45.5872C18.7216 47.4636 17.6367 49.9082 17.6367 52.5004C17.6452 53.797 17.9168 55.0784 18.435 56.2671C18.9532 57.4557 19.7072 58.5268 20.6514 59.4156C22.0979 60.8142 23.5464 62.2217 24.997 63.6381C25.038 65.6069 25.0893 67.575 25.1508 69.5423C25.2328 72.1776 26.3689 74.6816 28.3192 76.636C30.2006 78.5551 32.7421 79.6858 35.4272 79.7983C37.3987 79.8598 39.3688 79.9111 41.3376 79.9521C42.7636 81.3986 44.1738 82.8437 45.5684 84.2875C46.4549 85.2389 47.5279 85.9976 48.7204 86.5164C49.913 87.0352 51.1995 87.3029 52.5 87.3029C53.8005 87.3029 55.087 87.0352 56.2796 86.5164C57.4721 85.9976 58.5451 85.2389 59.4316 84.2875C60.8344 82.8451 62.246 81.3993 63.6665 79.9501C65.6353 79.9104 67.604 79.8598 69.5728 79.7983C74.995 79.6137 79.6646 74.9523 79.8492 69.5444C79.9107 67.5797 79.962 65.6144 80.003 63.6484C81.4536 62.232 82.9021 60.8204 84.3486 59.4135C85.2918 58.5244 86.0452 57.4535 86.5633 56.2654C87.0814 55.0773 87.3535 53.7965 87.3633 52.5004C87.3633 49.9041 86.2784 47.4595 84.3466 45.5851Z" fill="#6B60A5"/>
<path d="M69.8357 48.0891C63.9622 54.1922 57.9944 60.4327 52.1272 66.622C51.65 67.1269 51.0749 67.5294 50.4371 67.8047C49.7993 68.0801 49.112 68.2226 48.4173 68.2237H48.3988C47.7047 68.2187 47.0185 68.075 46.3807 67.801C45.7429 67.527 45.1663 67.1282 44.6849 66.6281C41.5492 63.39 38.391 60.1538 35.2513 56.9444C34.7736 56.4643 34.3967 55.8935 34.1429 55.2657C33.889 54.6378 33.7632 53.9655 33.773 53.2883C33.7827 52.6112 33.9278 51.9428 34.1996 51.3225C34.4715 50.7022 34.8646 50.1425 35.3559 49.6764C36.3452 48.7194 37.6725 48.1921 39.0489 48.2094C40.4252 48.2266 41.7389 48.7871 42.7038 49.7687C44.5782 51.6909 46.4568 53.6194 48.3394 55.5539C52.9987 50.6731 57.6786 45.7655 62.2847 40.9257C64.2411 38.8749 67.5039 38.8339 69.6019 40.8191C71.6998 42.8042 71.8065 46.0424 69.8357 48.0891Z" fill="url(#paint0_linear_7147_2092)"/>
</g>
<defs>
<linearGradient id="paint0_linear_7147_2092" x1="69.1142" y1="73.1849" x2="46.3683" y2="39.9065" gradientUnits="userSpaceOnUse">
<stop stop-color="#BCC7ED"/>
<stop offset="0.57" stop-color="white"/>
<stop offset="1" stop-color="white"/>
</linearGradient>
<clipPath id="clip0_7147_2092">
<rect width="105" height="105" fill="white"/>
</clipPath>
</defs>
</svg>
