<svg width="27" height="26" viewBox="0 0 27 26" fill="none" xmlns="http://www.w3.org/2000/svg">
<path d="M2.5 14.1788V12.2721C2.5 11.1455 3.42083 10.2138 4.55833 10.2138C6.51917 10.2138 7.32083 8.82714 6.335 7.12631C5.77167 6.15131 6.1075 4.88381 7.09333 4.32048L8.9675 3.24798C9.82333 2.73881 10.9283 3.04214 11.4375 3.89798L11.5567 4.10381C12.5317 5.80464 14.135 5.80464 15.1208 4.10381L15.24 3.89798C15.7492 3.04214 16.8542 2.73881 17.71 3.24798L19.5842 4.32048C20.57 4.88381 20.9058 6.15131 20.3425 7.12631C19.3567 8.82714 20.1583 10.2138 22.1192 10.2138C23.2458 10.2138 24.1775 11.1346 24.1775 12.2721V14.1788C24.1775 15.3055 23.2567 16.2371 22.1192 16.2371C20.1583 16.2371 19.3567 17.6238 20.3425 19.3246C20.9058 20.3105 20.57 21.5671 19.5842 22.1305L17.71 23.203C16.8542 23.7121 15.7492 23.4088 15.24 22.553L15.1208 22.3471C14.1458 20.6463 12.5425 20.6463 11.5567 22.3471L11.4375 22.553C10.9283 23.4088 9.82333 23.7121 8.9675 23.203L7.09333 22.1305C6.1075 21.5671 5.77167 20.2996 6.335 19.3246C7.32083 17.6238 6.51917 16.2371 4.55833 16.2371C3.42083 16.2371 2.5 15.3055 2.5 14.1788Z" fill="#6B60A5" stroke="#6B60A5" stroke-width="0.5" stroke-miterlimit="10" stroke-linecap="round" stroke-linejoin="round"/>
<path d="M13.75 16.5C15.5449 16.5 17 15.0449 17 13.25C17 11.4551 15.5449 10 13.75 10C11.9551 10 10.5 11.4551 10.5 13.25C10.5 15.0449 11.9551 16.5 13.75 16.5Z" stroke="white" stroke-width="1.625" stroke-miterlimit="10" stroke-linecap="round" stroke-linejoin="round"/>
</svg>
