<svg width="150" height="149" viewBox="0 0 150 149" fill="none" xmlns="http://www.w3.org/2000/svg">
<g clip-path="url(#clip0_7147_1895)">
<path d="M145.276 55.239H4.72369C3.47133 55.2378 2.27068 54.8114 1.38513 54.0535C0.499581 53.2956 0.00144607 52.2679 0 51.1961V4.04295C0.00144607 2.97108 0.499581 1.94345 1.38513 1.18552C2.27068 0.427586 3.47133 0.00123768 4.72369 0H145.276C146.529 0.00123768 147.729 0.427586 148.615 1.18552C149.5 1.94345 149.999 2.97108 150 4.04295V51.1961C149.999 52.268 149.5 53.2956 148.615 54.0535C147.729 54.8114 146.529 55.2378 145.276 55.239Z" fill="#F1F1F1"/>
<path d="M113.111 52.3316H27.0688C20.657 52.3255 14.5099 50.1859 9.97608 46.3821C5.44227 42.5783 2.892 37.4209 2.88477 32.0415V23.1974C2.89199 17.818 5.44225 12.6607 9.97606 8.85684C14.5099 5.05301 20.657 2.91333 27.0688 2.90723H123.653C130.064 2.91333 136.212 5.05301 140.745 8.85684C145.279 12.6607 147.829 17.818 147.837 23.1974C147.826 30.9216 144.164 38.3269 137.654 43.7888C131.144 49.2506 122.318 52.3229 113.111 52.3316Z" fill="white"/>
<path d="M100.646 19.7773H28.7096C28.4365 19.7773 28.1745 19.6681 27.9813 19.4737C27.7882 19.2793 27.6797 19.0156 27.6797 18.7407C27.6797 18.4658 27.7882 18.2021 27.9813 18.0077C28.1745 17.8133 28.4365 17.7041 28.7096 17.7041H100.646C100.919 17.7041 101.181 17.8133 101.374 18.0077C101.567 18.2021 101.676 18.4658 101.676 18.7407C101.676 19.0156 101.567 19.2793 101.374 19.4737C101.181 19.6681 100.919 19.7773 100.646 19.7773Z" fill="#E6E6E6"/>
<path d="M100.646 30.8369H28.7096C28.4365 30.8369 28.1745 30.7277 27.9813 30.5333C27.7882 30.3389 27.6797 30.0752 27.6797 29.8003C27.6797 29.5254 27.7882 29.2617 27.9813 29.0673C28.1745 28.8729 28.4365 28.7637 28.7096 28.7637H100.646C100.919 28.7637 101.181 28.8729 101.374 29.0673C101.567 29.2617 101.676 29.5254 101.676 29.8003C101.676 30.0752 101.567 30.3389 101.374 30.5333C101.181 30.7277 100.919 30.8369 100.646 30.8369Z" fill="#E6E6E6"/>
<path d="M71.4297 28.3143C71.4412 28.6265 71.5205 28.9324 71.6621 29.2105C71.8037 29.4885 72.0042 29.732 72.2494 29.9236C72.4946 30.1152 72.7786 30.2504 73.0813 30.3196C73.3841 30.3889 73.6982 30.3904 74.0016 30.3242L77.9294 36.8095L79.601 33.2392L75.6149 27.6281C75.4706 27.1224 75.1471 26.6876 74.7056 26.406C74.2641 26.1245 73.7353 26.0156 73.2195 26.1002C72.7036 26.1848 72.2365 26.4569 71.9066 26.865C71.5768 27.273 71.4071 27.7887 71.4297 28.3143Z" fill="#FFB6B6"/>
<path d="M100.905 46.9011L87.3691 39.5114L83.0996 35.4797C83.0996 35.4797 81.2436 34.9796 81.9267 34.3722C82.6099 33.7647 80.6631 33.1789 80.6631 33.1789L78.3711 31.0146L75.1143 33.334L76.0568 34.8046C76.0568 34.8046 75.9919 37.239 77.317 36.7707C78.6421 36.3023 78.3109 38.3214 78.3109 38.3214L86.2199 50.6608L100.905 46.9011Z" fill="#6B60A5"/>
<path d="M60.9488 39.9391C68.2508 39.9391 74.1701 33.9814 74.1701 26.6322C74.1701 19.2829 68.2508 13.3252 60.9488 13.3252C53.6469 13.3252 47.7275 19.2829 47.7275 26.6322C47.7275 33.9814 53.6469 39.9391 60.9488 39.9391Z" fill="#6B60A5"/>
<path d="M100.947 143.826H98.1979L96.8896 133.154H100.947V143.826Z" fill="#FFB6B6"/>
<path d="M102.398 148.62H100.427L100.075 146.746L99.1738 148.62H93.945C93.6944 148.62 93.4503 148.539 93.2484 148.39C93.0465 148.24 92.8974 148.03 92.8228 147.789C92.7482 147.548 92.752 147.29 92.8338 147.051C92.9155 146.813 93.0708 146.607 93.2771 146.463L97.4526 143.561V141.667L101.845 141.931L102.398 148.62Z" fill="#1F2125"/>
<path d="M78.9597 143.826H76.2105L74.9023 133.154H78.9597V143.826Z" fill="#FFB6B6"/>
<path d="M80.4111 148.62H78.4396L78.0877 146.746L77.1864 148.62H71.9577C71.707 148.62 71.463 148.539 71.2611 148.39C71.0592 148.24 70.9101 148.03 70.8355 147.789C70.7609 147.548 70.7647 147.29 70.8465 147.051C70.9282 146.813 71.0835 146.607 71.2898 146.463L75.4653 143.561V141.667L79.8573 141.931L80.4111 148.62Z" fill="#1F2125"/>
<path d="M98.0305 63.1133H84.1553V79.0121H98.0305V63.1133Z" fill="#CF9B9B"/>
<path d="M84.4754 70.9551L82.1273 73.7481L78.0714 82.3421L67.8517 106.815L65.6904 111.991L67.4358 121.141C67.4358 121.141 67.7184 127.587 67.7184 128.642C67.7184 130.79 69.5038 131.981 69.5038 131.981L70.8136 138.847L83.5148 138.31C83.5148 138.31 83.0716 130.741 80.4114 128.832C77.7512 126.923 76.5284 116.973 76.5284 116.973L75.0829 112.559L89.1716 95.7498L89.2626 101.625L89.3066 104.469C89.3066 104.469 87.2434 122.966 89.6484 126.556C92.0534 130.146 89.6974 129.724 89.6974 129.724L89.812 137.128L104.861 137.236L101.541 115.917C101.541 115.917 99.8554 114.577 100.757 113.23C101.659 111.884 99.8831 110.234 99.8831 110.234L100.68 93.5912C100.68 93.5912 99.7977 90.7165 100.835 90.3428C101.873 89.9692 100.971 87.497 100.971 87.497L101.126 84.2757L98.0304 74.2852L84.4754 70.9551Z" fill="#1F2125"/>
<path d="M98.2432 63.1138L99.7374 58.602L100.805 57.0981L101.232 52.8011C101.232 41.1993 98.6605 43.1312 98.6605 43.1312L97.1758 39.0508L90.345 38.8359L85.9689 43.0255L82.34 44.3146L80.9189 51.7463L83.5141 59.6763L84.1545 63.9732C82.9328 66.243 83.0362 65.1694 84.0477 66.8737L96.1085 70.2038C100.378 71.7078 100.378 67.8405 99.5217 66.8737C98.6657 65.9069 98.2432 63.1138 98.2432 63.1138Z" fill="#6B60A5"/>
<path d="M92.8784 37.3935C96.3757 37.3935 99.2109 34.54 99.2109 31.02C99.2109 27.5 96.3757 24.6465 92.8784 24.6465C89.3811 24.6465 86.5459 27.5 86.5459 31.02C86.5459 34.54 89.3811 37.3935 92.8784 37.3935Z" fill="#FFB6B6"/>
<path d="M101.332 39.527C101.392 39.6283 101.428 39.7419 101.438 39.8592C101.448 39.9766 101.432 40.0947 101.39 40.2048C101.349 40.3148 101.283 40.414 101.198 40.4949C101.113 40.5759 101.011 40.6364 100.899 40.6721C100.05 40.9558 99.5265 41.7829 98.916 42.4447C98.3076 43.1042 97.3278 43.6521 96.5508 43.2031C95.7759 42.7562 95.7226 41.6153 95.0736 40.9966C94.4418 40.395 93.3915 40.468 92.6487 40.9257L92.6264 40.9394C92.4982 41.0236 92.3483 41.068 92.1952 41.0673C92.0422 41.0666 91.8926 41.0208 91.7652 40.9355C91.6377 40.8502 91.5379 40.7291 91.4781 40.5873C91.4182 40.4455 91.401 40.2892 91.4285 40.1376C91.6888 38.7444 91.9489 37.3513 92.2089 35.9584C91.5257 37.6149 90.5337 39.1246 89.2866 40.4057C88.9431 40.8047 88.5077 41.1131 88.0186 41.3038C87.5746 41.4456 87.1434 40.9837 86.7122 41.0675C87.7838 40.1243 91.3871 34.0784 90.7424 30.0371C89.9846 30.1231 89.2268 30.209 88.469 30.295C88.387 29.934 88.2117 29.6012 87.961 29.3303C87.9916 29.6816 87.9472 30.0354 87.8307 30.368C87.5148 30.4045 87.1967 30.4389 86.8808 30.4754C86.4411 30.5249 85.9629 30.5678 85.5851 30.3358C84.9554 29.9491 84.9362 29.0338 85.1155 28.3119C85.6406 26.2128 87.233 24.4575 89.182 23.538C91.1309 22.6206 91.7073 24.6638 93.7608 24.0106C97.8166 22.7216 100.925 24.9259 102.02 29.0166C102.94 32.4477 102.272 36.0894 101.332 39.527Z" fill="#1F2125"/>
<path d="M118.864 148.758H111.11L111.077 148.698C110.977 148.517 110.882 148.325 110.792 148.128C109.994 146.407 109.656 144.438 109.358 142.702L109.134 141.393C109.107 141.234 109.127 141.071 109.193 140.924C109.258 140.778 109.365 140.654 109.501 140.569C109.637 140.484 109.795 140.442 109.955 140.448C110.114 140.454 110.269 140.507 110.398 140.602C111.576 141.465 112.755 142.327 113.934 143.189C114.381 143.516 114.891 143.894 115.379 144.303C115.426 144.073 115.476 143.842 115.525 143.614C115.559 143.457 115.639 143.313 115.754 143.202C115.87 143.091 116.016 143.016 116.173 142.989C116.331 142.962 116.493 142.982 116.639 143.048C116.785 143.114 116.908 143.222 116.993 143.359L117.9 144.826C118.561 145.897 119.145 146.953 119.026 148.091C119.027 148.105 119.026 148.119 119.023 148.133C119 148.32 118.955 148.504 118.892 148.681L118.864 148.758Z" fill="#3B4F43"/>
<path d="M131.664 148.886L42.3356 149C42.2464 148.999 42.1611 148.953 42.0982 148.87C42.0353 148.787 42 148.674 42 148.557C42 148.44 42.0353 148.328 42.0982 148.245C42.1611 148.162 42.2464 148.115 42.3356 148.114L131.664 148C131.754 148.001 131.839 148.047 131.902 148.13C131.965 148.213 132 148.326 132 148.443C132 148.56 131.965 148.672 131.902 148.755C131.839 148.838 131.754 148.885 131.664 148.886Z" fill="#EBEBEB"/>
<path d="M59.7471 44.5419L51.6423 37.653C51.3653 37.417 51.1926 37.0801 51.1621 36.7161C51.1316 36.3521 51.2458 35.9907 51.4797 35.7114L52.9714 33.9335C53.2059 33.6547 53.5407 33.4809 53.9023 33.4502C54.264 33.4195 54.623 33.5345 54.9005 33.7698L63.0054 40.6587C63.2824 40.8947 63.4551 41.2317 63.4856 41.5957C63.5161 41.9597 63.4019 42.321 63.168 42.6003L61.6763 44.3782C61.4418 44.657 61.107 44.8308 60.7454 44.8615C60.3837 44.8922 60.0247 44.7773 59.7471 44.5419Z" fill="#111111"/>
<path d="M52.0673 35.8554C51.9413 36.0059 51.8797 36.2006 51.8962 36.3968C51.9126 36.5929 52.0057 36.7745 52.1549 36.9017L60.2598 43.7905C60.4094 43.9174 60.6028 43.9793 60.7977 43.9628C60.9926 43.9462 61.173 43.8526 61.2994 43.7023L62.7911 41.9245C62.9171 41.7739 62.9786 41.5792 62.9622 41.3831C62.9458 41.1869 62.8527 41.0053 62.7034 40.8782L54.5986 33.9893C54.449 33.8625 54.2556 33.8005 54.0607 33.8171C53.8658 33.8336 53.6854 33.9273 53.559 34.0775L52.0673 35.8554Z" fill="white"/>
<path d="M56.8249 38.5331C56.7968 38.5727 56.7599 38.6052 56.7171 38.6279C56.6743 38.6507 56.6269 38.6631 56.5785 38.6642L55.3051 38.6937C55.2642 38.6946 55.2235 38.6874 55.1853 38.6726C55.1472 38.6577 55.1123 38.6354 55.0827 38.6069C55.0531 38.5785 55.0294 38.5444 55.0129 38.5068C54.9963 38.4691 54.9873 38.4285 54.9864 38.3873C54.9855 38.3461 54.9926 38.3052 55.0074 38.2668C55.0222 38.2284 55.0443 38.1933 55.0726 38.1635C55.1009 38.1337 55.1347 38.1098 55.1721 38.0932C55.2096 38.0766 55.2499 38.0675 55.2908 38.0666L56.1239 38.0473L55.3034 35.8684C55.2744 35.7907 55.2772 35.7045 55.3111 35.6288C55.3451 35.5532 55.4075 35.4941 55.4847 35.4647C55.5618 35.4353 55.6474 35.4378 55.7227 35.4718C55.798 35.5058 55.8568 35.5685 55.8862 35.6461L56.8628 38.2395C56.8805 38.2865 56.8867 38.3369 56.8809 38.3868C56.8752 38.4366 56.8577 38.4843 56.8299 38.5259L56.8249 38.5331Z" fill="#3B4F43"/>
<path d="M56.9883 39.0805C57.2954 39.1259 57.5889 39.2386 57.8482 39.4105C58.1074 39.5824 58.326 39.8095 58.4886 40.0756C58.6512 40.3418 58.7539 40.6406 58.7893 40.951C58.8248 41.2615 58.7922 41.5759 58.6938 41.8723L64.6721 46.5072L60.964 47.7915L55.8555 43.1932C55.3717 42.9939 54.9775 42.6229 54.7474 42.1506C54.5172 41.6783 54.4673 41.1374 54.6069 40.6305C54.7465 40.1235 55.0661 39.6858 55.505 39.4001C55.9439 39.1144 56.4716 39.0007 56.9883 39.0805Z" fill="#FFB6B6"/>
<path d="M88.1125 41.3721L72.8063 50.844C72.8063 50.844 66.635 48.5458 67.8411 47.4818C69.0471 46.4179 65.2077 45.6987 65.2077 45.6987L60.9661 42.8266L58.5049 45.7056C58.5049 45.7056 58.9533 50.3819 59.7164 49.5721C60.4795 48.7624 61.62 50.9743 61.62 50.9743C61.62 50.9743 61.9571 53.4441 64.1292 52.8226C66.3014 52.2011 72.1299 58.7159 72.1299 58.7159L90.9673 51.6448L88.1125 41.3721Z" fill="#6B60A5"/>
<path d="M60.4843 31.9704C60.3068 31.9704 60.1318 31.9288 59.9731 31.8489C59.8144 31.769 59.6764 31.653 59.57 31.5101L56.7667 27.7481C56.6766 27.6273 56.6111 27.4897 56.5738 27.3434C56.5366 27.197 56.5283 27.0447 56.5496 26.8952C56.5708 26.7456 56.6211 26.6018 56.6976 26.4718C56.7741 26.3418 56.8752 26.2282 56.9953 26.1376C57.2378 25.9545 57.5426 25.8759 57.8427 25.9191C57.9913 25.9405 58.1343 25.9911 58.2634 26.068C58.3926 26.145 58.5054 26.2468 58.5955 26.3677L60.4295 28.8287L65.1399 21.7174C65.3081 21.4635 65.5696 21.2873 65.8668 21.2274C66.1641 21.1676 66.4728 21.229 66.725 21.3983C66.9773 21.5675 67.1524 21.8307 67.2118 22.1299C67.2713 22.4291 67.2102 22.7398 67.0421 22.9937L61.4354 31.4581C61.334 31.6112 61.1976 31.7376 61.0377 31.8266C60.8777 31.9157 60.6988 31.9649 60.5161 31.97C60.5055 31.9702 60.4949 31.9704 60.4843 31.9704Z" fill="white"/>
</g>
<defs>
<clipPath id="clip0_7147_1895">
<rect width="150" height="149" fill="white"/>
</clipPath>
</defs>
</svg>
